<?xml version="1.0" encoding="utf-8"?><!DOCTYPE svg PUBLIC "-//W3C//DTD SVG 1.1//EN" "http://www.w3.org/Graphics/SVG/1.1/DTD/svg11.dtd"><svg viewBox="0 0 1792 1792" xmlns="http://www.w3.org/2000/svg" xmlns:xlink="http://www.w3.org/1999/xlink"><style>:root>svg{display:none}:root>svg:target{display:block}</style><svg viewBox="0 0 12 6" fill="#6667ab" id="angle-down--title"><path d="M6 6a.531.531 0 01-.364-.14L.138.799A.448.448 0 01.151.14.548.548 0 01.867.127L6 4.855 11.133.127a.548.548 0 01.716.012c.196.18.202.472.013.66L6.364 5.86A.531.531 0 016 6z"/></svg><svg viewBox="0 0 1792 1792" fill="#fff" id="angle-right"><path d="M1171 960q0 13-10 23l-466 466q-10 10-23 10t-23-10l-50-50q-10-10-10-23t10-23l393-393-393-393q-10-10-10-23t10-23l50-50q10-10 23-10t23 10l466 466q10 10 10 23z"/></svg><svg viewBox="0 0 192.617 192.617" id="basket"><g fill="#fff"><path d="M53.84 147.5a3.207 3.207 0 003.21-3.21V94.543a3.207 3.207 0 00-3.21-3.21 3.21 3.21 0 00-3.214 3.21v49.742a3.214 3.214 0 003.214 3.215zM82.221 147.5a3.206 3.206 0 003.214-3.21V94.543a3.206 3.206 0 00-3.214-3.21 3.212 3.212 0 00-3.21 3.21v49.742a3.21 3.21 0 003.21 3.215zM110.272 147.5a3.21 3.21 0 003.21-3.21V94.543a3.21 3.21 0 00-3.21-3.21 3.205 3.205 0 00-3.21 3.21v49.742a3.205 3.205 0 003.21 3.215zM137.986 147.5a3.203 3.203 0 003.21-3.21V94.543a3.203 3.203 0 00-3.21-3.21 3.212 3.212 0 00-3.21 3.21v49.742a3.208 3.208 0 003.21 3.215z"/><path d="M192.617 51.594h-14.809l10.307-10.304c2.444-2.459 2.444-6.435 0-8.872l-7.963-7.959c-2.366-2.369-6.488-2.369-8.872 0l-27.131 27.135H49.184L22.049 24.459c-2.38-2.369-6.488-2.369-8.879 0l-7.941 7.949a6.29 6.29 0 00-.004 8.879L15.536 51.59H0v30.477h13.585l18.735 87.868H154.9l24.086-87.868h13.632c-.001.001-.001-30.473-.001-30.473zM150 163.515H37.517L20.188 82.239h152.101L150 163.515zm36.19-87.868H6.428V58.018h24.615L9.77 36.953l7.741-7.949 29.017 29.01h100.279l28.813-29.01 7.949 7.737-21.276 21.276h23.9v17.629h-.003z"/></g></svg><svg viewBox="0 0 490 490" fill="#fff" id="calendar"><path d="M404.465 23.677h-53.131V0H330.03v23.677h-74.378V0h-21.304v23.677h-74.373V0h-21.304v23.677H85.535c-5.883 0-10.652 4.769-10.652 10.652v445.019c0 5.883 4.769 10.652 10.652 10.652h318.93c5.883 0 10.652-4.769 10.652-10.652V34.329c0-5.883-4.769-10.652-10.652-10.652zM138.671 44.981v23.681h21.304V44.981h74.373v23.681h21.304V44.981h74.378v23.681h21.304V44.981h42.479v74.914H96.187V44.981h42.484zM96.187 468.696V141.199h297.626v327.497H96.187z"/></svg><svg viewBox="0 0 92 71" fill="none" id="card"><path d="M88.476 16.49L14.384.62a2.96 2.96 0 00-3.515 2.272L.62 50.656a2.958 2.958 0 002.273 3.512l74.093 15.87a2.96 2.96 0 003.514-2.272L90.75 20.003a2.958 2.958 0 00-2.274-3.512z" fill="#4D4E95"/><path d="M77.604 70.29a3.15 3.15 0 01-.658-.07L2.852 54.345a3.153 3.153 0 01-2.415-3.731l10.25-47.762A3.155 3.155 0 0114.422.437L88.525 16.31a3.153 3.153 0 012.415 3.732L80.68 67.806a3.157 3.157 0 01-3.076 2.485zM13.764.739a2.79 2.79 0 00-2.714 2.191L.8 50.694a2.778 2.778 0 002.126 3.292l74.091 15.871a2.784 2.784 0 003.296-2.13l10.25-47.762a2.783 2.783 0 00-2.132-3.293L14.338.8a2.717 2.717 0 00-.575-.061z" fill="#24071D"/><path d="M84.326 8.576H9.21a3.287 3.287 0 00-3.288 3.285v48.194A3.287 3.287 0 009.21 63.34h75.117a3.287 3.287 0 003.289-3.285V11.86a3.287 3.287 0 00-3.289-3.285z" fill="#6667AB"/><path d="M84.331 63.525H9.21a3.48 3.48 0 01-3.473-3.47V11.86a3.474 3.474 0 013.473-3.47h75.122a3.477 3.477 0 013.474 3.47v48.194a3.471 3.471 0 01-3.474 3.47zM9.21 8.761a3.107 3.107 0 00-3.103 3.1v48.194a3.102 3.102 0 003.103 3.1h75.122a3.107 3.107 0 003.103-3.1V11.86a3.102 3.102 0 00-3.103-3.1H9.21z" fill="#24071D"/><path d="M66.34 29.681a7.005 7.005 0 007.01-7.002 7.005 7.005 0 00-7.01-7.002 7.005 7.005 0 00-7.007 7.002 7.005 7.005 0 007.008 7.003z" fill="#9091CA"/><path d="M66.34 29.866a7.197 7.197 0 01-6.645-4.436 7.182 7.182 0 011.56-7.833 7.195 7.195 0 0112.28 5.082 7.192 7.192 0 01-2.11 5.08 7.203 7.203 0 01-5.084 2.107zm0-14.005a6.827 6.827 0 00-6.303 4.21 6.812 6.812 0 001.48 7.429 6.825 6.825 0 0011.647-4.82 6.822 6.822 0 00-2-4.82 6.834 6.834 0 00-4.823-1.998z" fill="#24071D"/><path d="M74.05 29.681a7.005 7.005 0 007.008-7.002 7.005 7.005 0 00-7.009-7.002 7.005 7.005 0 00-7.008 7.002 7.005 7.005 0 007.008 7.003z" fill="#4D4E95"/><path d="M74.05 29.866a7.197 7.197 0 01-6.646-4.436 7.182 7.182 0 011.56-7.833 7.195 7.195 0 0112.279 5.082 7.191 7.191 0 01-2.11 5.08 7.204 7.204 0 01-5.083 2.107zm0-14.005a6.828 6.828 0 00-6.3 4.212 6.812 6.812 0 001.482 7.428 6.824 6.824 0 0011.646-4.822 6.821 6.821 0 00-2.003-4.82 6.833 6.833 0 00-4.825-1.998z" fill="#24071D"/><path d="M26.502 49.224H15.06c-.954 0-1.727.773-1.727 1.726v4.82c0 .954.773 1.726 1.727 1.726H26.5c.954 0 1.727-.772 1.727-1.725V50.95c0-.953-.773-1.726-1.726-1.726z" fill="#4D4E95"/><path d="M26.502 57.679H15.06a1.915 1.915 0 01-1.912-1.91v-4.82a1.912 1.912 0 011.912-1.91H26.5a1.912 1.912 0 011.912 1.91v4.82a1.91 1.91 0 01-1.911 1.91zm-11.441-8.27a1.542 1.542 0 00-1.542 1.54v4.82a1.54 1.54 0 001.542 1.54H26.5a1.543 1.543 0 001.542-1.54v-4.82a1.54 1.54 0 00-1.541-1.54H15.06z" fill="#24071D"/><path d="M43.177 19.674H14.876c-.954 0-1.727.773-1.727 1.726v4.673c0 .953.773 1.725 1.727 1.725h28.301c.954 0 1.727-.772 1.727-1.725V21.4c0-.953-.773-1.726-1.727-1.726z" fill="#CBCCEF"/><path d="M43.177 27.983H14.876a1.915 1.915 0 01-1.912-1.91V21.39a1.911 1.911 0 011.912-1.91h28.301a1.915 1.915 0 011.912 1.91v4.683a1.912 1.912 0 01-1.912 1.91zM14.876 19.85a1.544 1.544 0 00-1.542 1.54v4.683a1.542 1.542 0 001.542 1.54h28.301a1.542 1.542 0 001.542-1.54V21.39a1.54 1.54 0 00-1.542-1.54H14.876z" fill="#24071D"/><path d="M35.071 31.976H14.876c-.954 0-1.727.773-1.727 1.726v1.607c0 .952.773 1.725 1.727 1.725H35.07c.954 0 1.727-.773 1.727-1.725v-1.607c0-.953-.773-1.726-1.727-1.726z" fill="#3A3B82"/><path d="M44.514 49.224h-11.44c-.954 0-1.727.773-1.727 1.726v4.82c0 .954.773 1.726 1.726 1.726h11.441c.954 0 1.727-.772 1.727-1.725V50.95c0-.953-.773-1.726-1.727-1.726z" fill="#4D4E95"/><path d="M44.517 57.679H33.073a1.915 1.915 0 01-1.912-1.91v-4.82a1.912 1.912 0 011.912-1.91h11.444a1.915 1.915 0 011.912 1.91v4.82a1.912 1.912 0 01-1.912 1.91zm-11.444-8.27a1.545 1.545 0 00-1.541 1.54v4.82a1.542 1.542 0 001.541 1.54h11.444a1.545 1.545 0 001.542-1.54v-4.82a1.542 1.542 0 00-1.542-1.54H33.073z" fill="#24071D"/><path d="M62.527 49.224H51.086c-.954 0-1.727.773-1.727 1.726v4.82c0 .954.773 1.726 1.727 1.726h11.441c.954 0 1.727-.772 1.727-1.725V50.95c0-.953-.773-1.726-1.727-1.726z" fill="#4D4E95"/><path d="M62.53 57.679H51.086a1.915 1.915 0 01-1.912-1.91v-4.82a1.912 1.912 0 011.912-1.91H62.53a1.915 1.915 0 011.911 1.91v4.82a1.911 1.911 0 01-1.911 1.91zm-11.444-8.27a1.545 1.545 0 00-1.542 1.54v4.82a1.542 1.542 0 001.542 1.54H62.53a1.544 1.544 0 001.541-1.54v-4.82a1.542 1.542 0 00-1.541-1.54H51.086z" fill="#24071D"/><path d="M80.542 49.224h-11.44c-.955 0-1.728.773-1.728 1.726v4.82c0 .954.773 1.726 1.727 1.726h11.441c.954 0 1.727-.772 1.727-1.725V50.95c0-.953-.773-1.726-1.727-1.726z" fill="#4D4E95"/><path d="M80.542 57.679h-11.44a1.913 1.913 0 01-1.913-1.91v-4.82a1.91 1.91 0 011.912-1.91h11.441a1.914 1.914 0 011.912 1.91v4.82a1.911 1.911 0 01-1.912 1.91zm-11.44-8.27a1.543 1.543 0 00-1.543 1.54v4.82a1.54 1.54 0 001.542 1.54h11.441a1.542 1.542 0 001.542-1.54v-4.82a1.54 1.54 0 00-1.542-1.54h-11.44z" fill="#24071D"/><path opacity=".26" d="M87.615 11.861v48.194a3.294 3.294 0 01-3.284 3.285h-8.059l3.318-1.178c2.684-.951 4.544-4.772 4.549-7.64.027-11.504.086-40.14 0-45.939h.192a3.3 3.3 0 013.284 3.278z" fill="#680000"/><path d="M84.198 37.901a.185.185 0 01-.132-.053.181.181 0 01-.053-.131V22.122a.185.185 0 11.37 0v15.595a.185.185 0 01-.185.184zM84.198 48.295a.185.185 0 01-.185-.182l-.074-5.37a.187.187 0 01.183-.188.185.185 0 01.184.182l.075 5.371a.187.187 0 01-.183.187zM77.747 26.317a.186.186 0 01-.081-.017.187.187 0 01-.086-.247c2.484-5.067-1.234-7.426-1.394-7.522a.185.185 0 01-.06-.246.18.18 0 01.247-.062c.045.024 4.17 2.625 1.535 8a.183.183 0 01-.16.094zM79.963 55.892a.187.187 0 01-.185-.185v-4.545a.185.185 0 01.37 0v4.545a.185.185 0 01-.185.185zM62.053 55.892a.185.185 0 01-.185-.185v-4.545a.185.185 0 01.37 0v4.545a.187.187 0 01-.185.185zM44.142 55.892a.187.187 0 01-.185-.185v-4.545a.185.185 0 01.37 0v4.545a.187.187 0 01-.185.185zM26.233 55.892a.185.185 0 01-.185-.185v-4.545a.185.185 0 01.37 0v4.545a.188.188 0 01-.185.185z" fill="#fff"/></svg><svg viewBox="0 0 82 82" fill="none" id="clock"><path d="M41 81.823a41.208 41.208 0 01-22.778-6.86A40.773 40.773 0 013.12 56.693 40.442 40.442 0 01.788 33.172a40.621 40.621 0 0111.22-20.844A41.091 41.091 0 0133.002 1.186 41.272 41.272 0 0156.69 3.503a40.939 40.939 0 0118.4 14.994A40.505 40.505 0 0182 41.114a40.615 40.615 0 01-12.023 28.771C62.29 77.517 51.87 81.81 41 81.823zm0-80.575a40.354 40.354 0 00-22.306 6.719 39.928 39.928 0 00-14.788 17.89 39.603 39.603 0 00-2.284 23.034A39.78 39.78 0 0012.61 69.303a40.24 40.24 0 0020.557 10.91 40.416 40.416 0 0023.198-2.268 40.09 40.09 0 0018.018-14.683 39.666 39.666 0 006.767-22.148 39.768 39.768 0 00-11.779-28.165C61.845 5.479 51.641 1.277 41 1.265v-.017z" fill="#24071D"/><path d="M41 73.603c18.072 0 32.721-14.546 32.721-32.49 0-17.943-14.65-32.488-32.72-32.488C22.928 8.625 8.28 23.17 8.28 41.114c0 17.943 14.65 32.489 32.72 32.489z" fill="#fff"/><path d="M41 81.402c22.41 0 40.575-18.038 40.575-40.288C81.575 18.864 63.41.826 41 .826 18.591.826.425 18.864.425 41.114c0 22.25 18.166 40.288 40.575 40.288z" fill="#4D4E95"/><path d="M41 74.008a33.302 33.302 0 01-18.415-5.534 32.951 32.951 0 01-12.214-14.762 32.684 32.684 0 01-1.894-19.01 32.828 32.828 0 019.065-16.852 33.207 33.207 0 0116.966-9.009 33.354 33.354 0 0119.148 1.871 33.085 33.085 0 0114.873 12.12 32.734 32.734 0 015.583 18.282 32.816 32.816 0 01-9.709 23.242A33.288 33.288 0 0141 74.008zm0-64.973a32.465 32.465 0 00-17.945 5.406 32.124 32.124 0 00-11.897 14.393A31.862 31.862 0 009.32 47.365a32.003 32.003 0 008.84 16.422 32.373 32.373 0 0016.539 8.777A32.515 32.515 0 0053.36 70.74a32.252 32.252 0 0014.497-11.812 31.911 31.911 0 005.444-17.819 31.997 31.997 0 00-9.473-22.667A32.457 32.457 0 0041 9.035z" fill="#24071D"/><path d="M53.864 76.101a.427.427 0 01-.412-.332.419.419 0 01.236-.472c17.16-7.878 20.237-19.475 20.265-19.593a.422.422 0 01.35-.317.43.43 0 01.428.2.42.42 0 01.05.32c-.12.49-3.18 12.08-20.736 20.155a.501.501 0 01-.181.04zM4.075 38.3h-.046a.426.426 0 01-.38-.461c1.468-14.067 7.368-19.283 7.634-19.502a.432.432 0 01.606.039.425.425 0 01-.04.602c-.056.05-5.915 5.255-7.366 18.951a.427.427 0 01-.408.371z" fill="#fff"/><path d="M69.38 42.988H40.706V16.474h.816v25.71H69.38v.804z" fill="#24071D"/><path d="M41.108 46.493c2.457 0 4.449-1.977 4.449-4.417 0-2.44-1.992-4.417-4.449-4.417s-4.448 1.978-4.448 4.417c0 2.44 1.991 4.417 4.448 4.417z" fill="#24071D"/></svg><svg viewBox="0 0 1440 290" fill="none" id="decor-portfolio-1"><path fill-rule="evenodd" clip-rule="evenodd" d="M0 74.653h60c60 0 180 0 300-21.535S600-11.486 720 2.87c120 14.357 240 86.14 360 107.674 120 21.535 240-7.178 300-21.535l60-14.356V290H0V74.653z" fill="#F4F4F4"/></svg><svg viewBox="0 0 1440 310" fill="none" id="decor-portfolio-2"><path fill-rule="evenodd" clip-rule="evenodd" d="M0 258.586h60c60 0 180 0 300 14.365 120 14.366 240 43.098 360 35.915s240-50.28 360-64.646 240 0 300 7.183l60 7.183V0H0v258.586z" fill="#F4F4F4"/></svg><svg viewBox="0 0 104 66" fill="none" id="delivery"><path opacity=".26" d="M59.96 65.478c23.972 0 43.406-.64 43.406-1.432 0-.79-19.434-1.432-43.407-1.432-23.972 0-43.406.641-43.406 1.432 0 .791 19.434 1.432 43.406 1.432z" fill="#0D322C"/><path d="M21.295 47.659v9.35H19.62c-.308 0-.604-.121-.822-.338a1.15 1.15 0 01-.34-.815v-8.197h2.837z" fill="#4D4E95"/><path d="M21.295 57.189H19.62c-.354 0-.694-.14-.944-.39a1.323 1.323 0 01-.392-.936v-8.195a.17.17 0 01.174-.173h2.837a.173.173 0 01.174.173v9.348a.172.172 0 01-.174.173zm-2.65-9.348v8.022c0 .26.103.51.288.693a.99.99 0 00.698.287h1.501v-8.995l-2.488-.007z" fill="#24071D"/><path d="M68.668 35.84h23.726l-2.573-13.892H68.668V35.84z" fill="#A6A7F3"/><path d="M92.394 36.013H68.668a.177.177 0 01-.174-.173V21.948a.174.174 0 01.174-.173h21.153a.173.173 0 01.17.141l2.575 13.892a.177.177 0 01-.037.143.174.174 0 01-.135.062zm-23.552-.346h23.343l-2.51-13.546H68.841v13.546z" fill="#24071D"/><path d="M89.82 21.948H68.669v-3.92H88.66c.308 0 .604.12.822.337.217.216.34.51.34.816v2.767z" fill="#6667AB"/><path d="M89.82 22.121H68.669a.177.177 0 01-.174-.173v-3.92a.174.174 0 01.174-.174H88.66c.354.001.694.14.944.39.25.248.391.585.392.937v2.767a.174.174 0 01-.174.173zm-20.978-.346h20.804v-2.597a.979.979 0 00-.29-.692.993.993 0 00-.697-.288H68.842v3.577z" fill="#24071D"/><path d="M98.065 57.002H21.98c-.308 0-.604-.121-.821-.338a1.15 1.15 0 01-.34-.815v-1.384h78.407v1.384c0 .306-.122.6-.34.815a1.166 1.166 0 01-.821.338z" fill="#4D4E95"/><path d="M98.065 57.175H21.98c-.354 0-.694-.14-.944-.389a1.324 1.324 0 01-.392-.937v-1.384a.167.167 0 01.05-.123.173.173 0 01.124-.05h78.408a.172.172 0 01.174.173v1.384c0 .352-.141.689-.392.937-.25.249-.59.389-.943.39zm-77.073-2.537v1.21c0 .26.104.51.29.694a.99.99 0 00.698.287h76.085a.99.99 0 00.698-.287.977.977 0 00.289-.693v-1.211h-78.06z" fill="#24071D"/><path d="M99.226 54.463H68.668V35.838h29.397c.308 0 .603.121.821.338.218.216.34.51.34.815v17.472z" fill="#6667AB"/><path d="M99.226 54.638H68.668a.177.177 0 01-.174-.173V35.84a.172.172 0 01.174-.173h29.397c.354 0 .693.14.943.39.25.248.392.585.392.936v17.472a.175.175 0 01-.174.173zm-30.384-.346H99.04V36.993c0-.26-.104-.509-.289-.693a.99.99 0 00-.698-.287h-29.21v18.279z" fill="#24071D"/><path opacity=".26" d="M99.096 37.24v17.407h-1.26V38.615a1.214 1.214 0 00-.758-1.127 1.236 1.236 0 00-.47-.093h-28.07V36.01h29.33a1.236 1.236 0 01.871.36 1.218 1.218 0 01.357.87z" fill="#680000"/><path d="M68.668 10.4v44.065H20.816V10.411c0-.323.13-.633.36-.862.23-.23.543-.358.869-.358h45.394c.324 0 .635.127.865.354.23.226.361.533.364.855z" fill="#6667AB"/><path d="M68.668 54.638H20.816a.175.175 0 01-.174-.173V10.411c0-.367.147-.719.408-.978.261-.26.616-.405.986-.405h45.403c.37 0 .725.145.986.405s.408.611.408.978v44.054a.173.173 0 01-.165.173zm-47.678-.346h47.504V10.4c0-.278-.111-.544-.309-.74a1.059 1.059 0 00-.746-.307H22.045c-.28 0-.548.11-.746.306a1.043 1.043 0 00-.309.74v43.893z" fill="#24071D"/><path opacity=".26" d="M68.482 10.55v44.053h-1.816V12.028c0-.323-.13-.633-.36-.862a1.233 1.233 0 00-.867-.358H20.735v-.258a1.21 1.21 0 01.358-.863 1.227 1.227 0 01.868-.357h45.297a1.234 1.234 0 01.867.358 1.216 1.216 0 01.357.862z" fill="#680000"/><path d="M71.226 35.84V21.948h-2.558V35.84h2.558z" fill="#6667AB"/><path d="M71.226 36.013H68.67a.177.177 0 01-.175-.173V21.948a.175.175 0 01.175-.173h2.555a.177.177 0 01.174.173V35.84a.175.175 0 01-.174.173zm-2.383-.346h2.209V22.121h-2.21v13.546z" fill="#24071D"/><path d="M22.612 52.49h-1.777v4.14a.384.384 0 00.387.386h1.394l-.004-4.525z" fill="#4D4E95"/><path d="M22.611 57.18h-1.393a.564.564 0 01-.562-.558V52.49c0-.046.018-.09.05-.123a.175.175 0 01.124-.05h1.777a.177.177 0 01.174.173v4.516a.172.172 0 01-.17.173zm-1.602-4.516v3.967a.211.211 0 00.213.212h1.215v-4.18H21.01zM95.837 51.185v4.998h-1.255c-.307 0-.603-.121-.82-.337a1.149 1.149 0 01-.34-.816v-3.845h2.415z" fill="#24071D"/><path d="M95.463 51.557h-1.68v3.902a.366.366 0 00.37.364h1.31v-4.266z" fill="#24071D"/><path d="M70.487 56.935h23.39a11.542 11.542 0 00-.843-4.494 11.604 11.604 0 00-2.524-3.823 11.7 11.7 0 00-3.814-2.56 11.768 11.768 0 00-9.028 0 11.7 11.7 0 00-3.815 2.56 11.606 11.606 0 00-2.524 3.823 11.542 11.542 0 00-.842 4.494z" fill="#4D4E95"/><path d="M93.876 57.108H70.487a.173.173 0 01-.174-.173 11.715 11.715 0 01.855-4.56 11.78 11.78 0 012.562-3.88 11.875 11.875 0 013.87-2.598 11.945 11.945 0 019.163 0 11.875 11.875 0 013.87 2.598 11.779 11.779 0 012.562 3.88c.587 1.449.878 2.999.856 4.56a.175.175 0 01-.175.173zm-23.215-.346H93.7a11.401 11.401 0 00-3.455-7.94 11.564 11.564 0 00-8.064-3.27 11.564 11.564 0 00-8.065 3.27 11.402 11.402 0 00-3.455 7.94z" fill="#24071D"/><path d="M73.727 56.935c0 1.66.496 3.283 1.425 4.663a8.44 8.44 0 003.794 3.092 8.509 8.509 0 004.884.477 8.47 8.47 0 004.328-2.297 8.375 8.375 0 002.313-4.297 8.339 8.339 0 00-.48-4.85 8.406 8.406 0 00-3.114-3.767 8.493 8.493 0 00-10.67 1.047 8.373 8.373 0 00-2.48 5.932z" fill="#24071D"/><path d="M82.18 60.649c2.066 0 3.74-1.663 3.74-3.714 0-2.05-1.674-3.713-3.74-3.713-2.065 0-3.74 1.662-3.74 3.713s1.675 3.714 3.74 3.714z" fill="#fff"/><path d="M78.053 56.935c0-.81.242-1.604.696-2.278.454-.675 1.1-1.2 1.854-1.51a4.158 4.158 0 014.501.89 4.074 4.074 0 01.894 4.47 4.107 4.107 0 01-1.522 1.84 4.15 4.15 0 01-5.213-.514 4.09 4.09 0 01-1.21-2.898zm.778 0c0 .658.197 1.301.565 1.848.368.547.89.973 1.503 1.225a3.373 3.373 0 003.65-.721 3.304 3.304 0 00.726-3.624 3.33 3.33 0 00-1.233-1.493 3.367 3.367 0 00-4.228.415 3.32 3.32 0 00-.983 2.35z" fill="#797AC5"/><path d="M82.18 58.255c.734 0 1.33-.591 1.33-1.32 0-.728-.596-1.32-1.33-1.32-.733 0-1.328.592-1.328 1.32 0 .729.595 1.32 1.329 1.32z" fill="#4D4E95"/><path d="M82.18 58.428a1.51 1.51 0 01-1.386-.923 1.482 1.482 0 01.327-1.626 1.507 1.507 0 011.638-.322 1.5 1.5 0 01.674.55 1.485 1.485 0 01-.677 2.208 1.512 1.512 0 01-.576.113zm0-2.64a1.167 1.167 0 00-1.073.713 1.146 1.146 0 00.252 1.257 1.164 1.164 0 001.266.25 1.16 1.16 0 00.717-1.066c0-.306-.122-.599-.34-.815a1.166 1.166 0 00-.822-.338z" fill="#24071D"/><path d="M27.443 56.935h23.39a11.542 11.542 0 00-.843-4.494 11.605 11.605 0 00-2.523-3.823 11.702 11.702 0 00-3.815-2.56 11.768 11.768 0 00-9.028 0 11.702 11.702 0 00-3.814 2.56 11.605 11.605 0 00-2.524 3.823 11.54 11.54 0 00-.843 4.494z" fill="#4D4E95"/><path d="M50.833 57.108h-23.39a.175.175 0 01-.174-.173 11.713 11.713 0 01.856-4.56 11.779 11.779 0 012.561-3.88 11.876 11.876 0 013.871-2.598 11.945 11.945 0 019.162 0 11.875 11.875 0 013.871 2.598 11.78 11.78 0 012.562 3.88c.586 1.449.877 2.999.855 4.56a.172.172 0 01-.174.173zm-23.215-.346h23.04a11.401 11.401 0 00-3.43-7.984 11.564 11.564 0 00-8.09-3.293 11.564 11.564 0 00-8.089 3.293 11.4 11.4 0 00-3.431 7.984z" fill="#24071D"/><path d="M30.684 56.935c0 1.66.495 3.283 1.424 4.663a8.44 8.44 0 003.794 3.092 8.509 8.509 0 004.884.477 8.47 8.47 0 004.328-2.297 8.375 8.375 0 002.314-4.297 8.339 8.339 0 00-.482-4.85 8.406 8.406 0 00-3.113-3.767 8.493 8.493 0 00-10.67 1.047 8.373 8.373 0 00-2.48 5.932z" fill="#24071D"/><path d="M39.137 60.649c2.065 0 3.74-1.663 3.74-3.714 0-2.05-1.675-3.713-3.74-3.713-2.066 0-3.74 1.662-3.74 3.713s1.674 3.714 3.74 3.714z" fill="#fff"/><path d="M35.009 56.935c0-.81.242-1.604.696-2.278.454-.675 1.1-1.2 1.854-1.51a4.158 4.158 0 014.502.89 4.074 4.074 0 01.894 4.47 4.107 4.107 0 01-1.523 1.84 4.15 4.15 0 01-5.213-.514 4.091 4.091 0 01-1.21-2.898zm.778 0c0 .659.196 1.302.564 1.85.368.548.892.975 1.504 1.227a3.374 3.374 0 003.654-.721 3.308 3.308 0 00.726-3.628A3.333 3.333 0 0041 54.169a3.37 3.37 0 00-4.23.416 3.318 3.318 0 00-.983 2.35z" fill="#797AC5"/><path d="M44.268 42.886c6.834 0 12.374-5.5 12.374-12.286s-5.54-12.287-12.374-12.287c-6.834 0-12.374 5.501-12.374 12.287 0 6.786 5.54 12.286 12.374 12.286z" fill="#4D4E95"/><path opacity=".26" d="M44.168 17.843a17.778 17.778 0 01-1.94 8.063 17.916 17.916 0 01-5.393 6.329 18.077 18.077 0 01-7.688 3.233 18.133 18.133 0 01-8.331-.557V10.4c0-.324.13-.634.36-.863.23-.229.543-.357.869-.357h19.872a17.687 17.687 0 012.251 8.663z" fill="#680000"/><path d="M10.084 25.724H.525a.175.175 0 01-.174-.173.172.172 0 01.174-.173h9.56a.175.175 0 01.173.173c0 .046-.018.09-.05.122a.175.175 0 01-.124.051zM15.127 30.766h-5.31a.175.175 0 01-.174-.173.173.173 0 01.174-.173h5.317a.172.172 0 110 .346h-.007zM7.959 30.766H2.642a.173.173 0 110-.346h5.317a.175.175 0 01.174.173.173.173 0 01-.174.173zM15.127 20.661h-3.17a.175.175 0 01-.175-.173.175.175 0 01.174-.173h3.171a.174.174 0 01.175.173.175.175 0 01-.174.173zM9.543 35.817h-3.17a.175.175 0 01-.175-.173.173.173 0 01.174-.173h3.17a.175.175 0 01.175.173.173.173 0 01-.174.173zM13.94 45.922H3.557a.175.175 0 01-.174-.173c0-.046.018-.09.05-.122a.175.175 0 01.124-.051H13.94a.175.175 0 01.174.173c0 .046-.018.09-.05.122a.175.175 0 01-.124.05zM15.127 50.975h-5.31a.175.175 0 01-.174-.173.172.172 0 01.174-.173h5.317a.175.175 0 01.175.173c0 .046-.019.09-.051.123a.175.175 0 01-.124.05h-.007zM13.002 40.87H7.685a.175.175 0 01-.175-.172.172.172 0 01.175-.173h5.317a.174.174 0 01.174.173.175.175 0 01-.174.173z" fill="#24071D"/><path d="M87.337 34.06a.393.393 0 00.348-.22.384.384 0 00-.043-.405l-7.208-9.095a.39.39 0 00-.692.193.384.384 0 00.08.285l7.209 9.094a.388.388 0 00.306.148zM81.95 33.74a.392.392 0 00.35-.219.386.386 0 00-.043-.407l-6.149-7.757a.388.388 0 00-.41-.133.388.388 0 00-.27.477.384.384 0 00.07.134l6.146 7.757a.39.39 0 00.306.147z" fill="#fff"/><path d="M26.442 33.375c-3.324 0-6.573-.979-9.337-2.813a16.713 16.713 0 01-6.19-7.489 16.577 16.577 0 01-.956-9.641 16.652 16.652 0 014.6-8.544A16.844 16.844 0 0123.162.32c3.26-.644 6.64-.314 9.71.95a16.781 16.781 0 017.543 6.145 16.604 16.604 0 012.832 9.271 16.649 16.649 0 01-4.928 11.794 16.888 16.888 0 01-11.878 4.894zm0-33.029c-3.255 0-6.437.958-9.143 2.754a16.366 16.366 0 00-6.062 7.334 16.234 16.234 0 00-.937 9.441 16.306 16.306 0 004.505 8.367 16.495 16.495 0 008.426 4.473c3.193.63 6.502.307 9.51-.93a16.434 16.434 0 007.385-6.019 16.26 16.26 0 002.774-9.079 16.301 16.301 0 00-4.828-11.545 16.536 16.536 0 00-11.63-4.79V.347z" fill="#24071D"/><path d="M26.442 30.005c7.408 0 13.413-5.963 13.413-13.318 0-7.355-6.005-13.317-13.413-13.317-7.407 0-13.412 5.962-13.412 13.317s6.005 13.318 13.412 13.318z" fill="#fff"/><path d="M26.442 33.202c9.186 0 16.632-7.394 16.632-16.515 0-9.12-7.446-16.514-16.632-16.514C17.256.173 9.81 7.567 9.81 16.687c0 9.121 7.446 16.515 16.632 16.515z" fill="#4D4E95"/><path d="M26.442 30.171a13.652 13.652 0 01-7.549-2.268 13.508 13.508 0 01-5.006-6.051 13.398 13.398 0 01-.776-7.793 13.457 13.457 0 013.715-6.908 13.612 13.612 0 016.955-3.692 13.672 13.672 0 017.849.766 13.562 13.562 0 016.096 4.968 13.418 13.418 0 012.289 7.494c-.004 3.574-1.435 7-3.98 9.527a13.645 13.645 0 01-9.593 3.957zm0-26.633c-2.619 0-5.179.771-7.356 2.216a13.167 13.167 0 00-4.877 5.9 13.06 13.06 0 00-.753 7.596 13.118 13.118 0 003.624 6.731 13.27 13.27 0 006.779 3.598c2.568.508 5.23.247 7.65-.748a13.221 13.221 0 005.942-4.842 13.08 13.08 0 002.232-7.304A13.116 13.116 0 0035.8 7.393a13.305 13.305 0 00-9.358-3.855z" fill="#24071D"/><path d="M31.715 31.029a.175.175 0 01-.169-.136.172.172 0 01.097-.194c7.034-3.229 8.295-7.983 8.307-8.031a.174.174 0 01.211-.127.175.175 0 01.131.142.173.173 0 01-.003.068c-.049.2-1.303 4.952-8.5 8.262a.204.204 0 01-.074.016zM11.306 15.534h-.018a.175.175 0 01-.156-.19c.601-5.765 3.02-7.903 3.129-7.993a.177.177 0 01.292.143.174.174 0 01-.06.12c-.023.02-2.425 2.154-3.02 7.768a.175.175 0 01-.167.152z" fill="#fff"/><path d="M38.075 17.455H26.321V6.587h.335v10.538h11.42v.33z" fill="#24071D"/><path d="M26.486 18.892c1.007 0 1.824-.81 1.824-1.81s-.817-1.81-1.824-1.81c-1.007 0-1.823.81-1.823 1.81s.816 1.81 1.823 1.81z" fill="#24071D"/><path d="M76.898 38.248h-4.887c-.59 0-1.066.474-1.066 1.059v.122c0 .585.477 1.059 1.066 1.059h4.887c.59 0 1.067-.474 1.067-1.059v-.122c0-.585-.478-1.059-1.067-1.059z" fill="#4D4E95"/><path d="M76.898 40.66H72.02c-.329 0-.644-.13-.876-.36a1.23 1.23 0 01-.364-.87v-.123c0-.327.131-.64.364-.87.232-.231.547-.361.876-.362h4.878c.33 0 .645.13.877.361.233.231.364.544.364.87v.123c0 .327-.131.64-.364.871-.232.231-.548.36-.877.36zm-4.878-2.239a.898.898 0 00-.63.26.885.885 0 00-.262.626v.122c0 .235.095.46.262.626.167.166.394.26.63.26h4.878a.895.895 0 00.63-.26.883.883 0 00.262-.626v-.122a.883.883 0 00-.261-.626.895.895 0 00-.63-.26H72.02z" fill="#24071D"/><path d="M39.128 58.255c.733 0 1.328-.591 1.328-1.32 0-.728-.595-1.32-1.328-1.32-.734 0-1.329.592-1.329 1.32 0 .729.595 1.32 1.329 1.32z" fill="#4D4E95"/><path d="M39.128 58.428a1.51 1.51 0 01-1.389-.922 1.482 1.482 0 01.326-1.626 1.506 1.506 0 011.638-.323 1.5 1.5 0 01.674.55 1.484 1.484 0 01-.187 1.883 1.51 1.51 0 01-1.062.438zm0-2.64a1.168 1.168 0 00-1.073.713 1.146 1.146 0 00.251 1.257 1.164 1.164 0 001.266.25 1.16 1.16 0 00.717-1.066c0-.306-.122-.599-.34-.815a1.166 1.166 0 00-.821-.338z" fill="#24071D"/><path d="M96.209 37.54h-5.276a.175.175 0 01-.174-.173.173.173 0 01.174-.173h5.276a.172.172 0 110 .346zM97.779 48.987a.177.177 0 01-.174-.173v-8.116c0-.046.018-.09.05-.123a.175.175 0 01.298.123v8.116a.173.173 0 01-.174.173zM84.661 63.896a.175.175 0 01-.172-.138.172.172 0 01.103-.194c3.986-1.714 4.676-5.766 4.678-5.815a.175.175 0 01.181-.159.173.173 0 01.168.171c0 .04-.674 4.306-4.89 6.121a.168.168 0 01-.068.014zM40.68 63.896a.175.175 0 01-.16-.104.174.174 0 01.09-.23c3.986-1.714 4.676-5.766 4.68-5.815a.175.175 0 01.299-.107.17.17 0 01.047.119c0 .039-.67 4.306-4.878 6.121a.187.187 0 01-.079.016zM66.478 29.608a.175.175 0 01-.174-.173v-11.01c0-.047.018-.09.05-.123a.175.175 0 01.247 0 .172.172 0 01.05.122v11.011a.171.171 0 01-.173.173zM66.478 36.115a.177.177 0 01-.174-.173v-4.094a.172.172 0 01.174-.173.173.173 0 01.174.173v4.094a.173.173 0 01-.174.173zM61.04 11.214H49.92a.172.172 0 110-.346h11.12a.175.175 0 01.174.173c0 .046-.018.09-.051.122a.175.175 0 01-.123.051zM22.105 48.429a.175.175 0 01-.174-.173v-8.59a.172.172 0 01.174-.172.173.173 0 01.174.173v8.589a.172.172 0 01-.174.173zM86.12 19.086H73.943a.172.172 0 110-.346H86.12a.172.172 0 110 .346z" fill="#fff"/></svg><svg viewBox="0 0 104 81" fill="none" id="delivery-2"><path d="M103.516 77.614H1.009a.166.166 0 110-.334h102.507c.044 0 .086.018.117.05a.164.164 0 01.049.117.164.164 0 01-.049.118.165.165 0 01-.117.049z" fill="#24071D"/><path opacity=".26" d="M101.779 80.404H2.746c-.914 0-1.652-.626-1.652-1.394 0-.77.738-1.394 1.652-1.394h99.033c.914 0 1.655.624 1.655 1.394 0 .768-.743 1.394-1.655 1.394z" fill="#38394D"/><path d="M103.283 24.343a2.411 2.411 0 00-2.218-1.49 4 4 0 00-3.247-3.936 3.99 3.99 0 00-4.464 2.468 2.84 2.84 0 00-4.267 1.59 2.398 2.398 0 00-3.157 2.287v.208a2.407 2.407 0 002.396 2.2h12.504a.17.17 0 00.057 0h.169a2.408 2.408 0 002.227-3.328zM24.822 19.776c-.418 0-.833.067-1.23.198a4.663 4.663 0 00-4.98-3.327 4.656 4.656 0 00-2.024.722 6.55 6.55 0 00-7.321-4.053 6.545 6.545 0 00-5.323 6.46A3.942 3.942 0 000 23.723a3.949 3.949 0 003.944 3.947c.095 0 .188 0 .284-.01.028.006.057.01.086.01h20.49a3.94 3.94 0 003.926-3.607 3.947 3.947 0 00-3.908-4.287z" fill="#CACBFF"/><path d="M81.463 37.285H23.065v41.332h58.398V37.285z" fill="#6667AB"/><path d="M81.463 78.783H23.065a.166.166 0 01-.167-.166V37.285a.163.163 0 01.103-.154.163.163 0 01.064-.013h58.398a.166.166 0 01.166.167v41.332a.169.169 0 01-.166.166zm-58.221-.333h58.054V37.454H23.242V78.45z" fill="#24071D"/><path d="M37.272 53.094h2.311c1.875 0 3.674.745 5 2.072a7.078 7.078 0 012.07 5.003v18.448h-16.45V60.17c0-1.877.745-3.676 2.07-5.003a7.067 7.067 0 015-2.072z" fill="#fff"/><path d="M46.82 78.781H30.035V60.17a7.253 7.253 0 012.122-5.118 7.242 7.242 0 015.114-2.124h2.311a7.24 7.24 0 015.115 2.123 7.25 7.25 0 012.121 5.119V78.78zm-16.45-.333h16.116v-18.28a6.918 6.918 0 00-2.023-4.882 6.906 6.906 0 00-4.88-2.026h-2.31a6.907 6.907 0 00-4.88 2.026 6.918 6.918 0 00-2.024 4.883v18.28z" fill="#24071D"/><path opacity=".26" d="M46.846 60.362v18.446h-2.884V60.362a7.078 7.078 0 00-1.97-4.901 7.066 7.066 0 00-4.813-2.17h2.597c1.874 0 3.672.745 4.997 2.071a7.078 7.078 0 012.073 5z" fill="#680000"/><g opacity=".26" fill="#680000"><path opacity=".26" d="M33.113 37.285v5.521c0 2.684-2.86 4.86-6.384 4.86a7.76 7.76 0 01-3.664-.888v-9.493h10.048z"/><path opacity=".26" d="M71.414 37.285v4.644a5.74 5.74 0 01-1.68 4.057 5.731 5.731 0 01-4.054 1.68h-1.3a5.734 5.734 0 01-4.053-1.682 5.743 5.743 0 01-1.68-4.057c0 1.522-.604 2.981-1.68 4.057a5.732 5.732 0 01-4.052 1.682h-1.3a5.734 5.734 0 01-4.056-1.68 5.743 5.743 0 01-1.68-4.059 5.741 5.741 0 01-1.68 4.058 5.731 5.731 0 01-4.054 1.68h-1.298c-1.52 0-2.98-.604-4.055-1.68a5.74 5.74 0 01-1.68-4.058v-4.642h38.302z"/><path opacity=".26" d="M81.463 37.285v9.493a7.777 7.777 0 01-3.667.888c-3.525 0-6.382-2.176-6.382-4.86v-5.52h10.049z"/></g><path d="M75.081 53.094H53.762a1.11 1.11 0 00-1.109 1.11v16.76c0 .614.497 1.11 1.109 1.11h21.319a1.11 1.11 0 001.11-1.11v-16.76a1.11 1.11 0 00-1.11-1.11z" fill="#CACBFF"/><path d="M75.081 72.241H53.762a1.277 1.277 0 01-1.275-1.276V54.204a1.279 1.279 0 011.275-1.277h21.319a1.277 1.277 0 011.275 1.277v16.772a1.28 1.28 0 01-1.275 1.265zm-21.319-18.98a.942.942 0 00-.943.943v16.772a.946.946 0 00.943.943h21.319a.943.943 0 00.954-.943V54.215a.944.944 0 00-.943-.944l-21.33-.01z" fill="#24071D"/><path d="M57.704 66.82a.565.565 0 01-.302-.062.33.33 0 01-.2-.387.332.332 0 01.074-.14l8.096-9.685a.566.566 0 01.665-.12.33.33 0 01.127.524l-8.097 9.692a.523.523 0 01-.363.178zM64.749 68.676a.566.566 0 01-.302-.056.33.33 0 01-.127-.526l6.897-8.258a.57.57 0 01.665-.12.328.328 0 01.124.524l-6.896 8.258a.54.54 0 01-.361.178zM84.182 30.947v3.725H20.345V31.12l.444-2.138L23.29 16.95a4.359 4.359 0 014.268-3.472h49.445a4.356 4.356 0 014.268 3.472l2.502 12.032.408 1.965z" fill="#fff"/><path d="M84.349 34.839h-64.17V31.09l2.946-14.17a4.549 4.549 0 014.436-3.603h49.443a4.543 4.543 0 014.437 3.603l2.914 14.024-.006 3.894zm-63.837-.333H84.02v-3.552L81.112 16.98a4.219 4.219 0 00-4.103-3.33h-49.45a4.212 4.212 0 00-4.104 3.33l-2.943 14.152v3.373z" fill="#24071D"/><path d="M33.11 33.04v7.051c0 2.686-2.856 4.862-6.381 4.862-3.525 0-6.384-2.176-6.384-4.862v-7.05h12.766z" fill="#4D4E95"/><path d="M26.73 45.12c-3.612 0-6.551-2.256-6.551-5.029v-7.05a.167.167 0 01.166-.167h12.766a.166.166 0 01.166.166v7.051c0 2.773-2.937 5.028-6.548 5.028zm-6.212-11.913v6.882c0 2.588 2.788 4.695 6.211 4.695 3.423 0 6.211-2.107 6.211-4.695v-6.882H20.518z" fill="#24071D"/><path d="M33.113 33.04H45.88v6.412a5.495 5.495 0 01-1.608 3.883 5.485 5.485 0 01-3.88 1.609h-1.794a5.495 5.495 0 01-5.486-5.492V33.04z" fill="#fff"/><path d="M40.393 45.12h-1.794a5.657 5.657 0 01-3.995-1.66 5.666 5.666 0 01-1.657-3.997v-6.59h13.098v6.59a5.666 5.666 0 01-1.657 3.998 5.656 5.656 0 01-3.995 1.658zm-7.114-11.913v6.256a5.321 5.321 0 005.324 5.328h1.794a5.321 5.321 0 005.324-5.328v-6.256H33.279z" fill="#24071D"/><path d="M45.879 33.04h12.767v6.412a5.495 5.495 0 01-1.607 3.883 5.486 5.486 0 01-3.88 1.609h-1.795a5.495 5.495 0 01-5.486-5.492V33.04z" fill="#4D4E95"/><path d="M53.16 45.12h-1.794a5.659 5.659 0 01-5.654-5.657V33.04a.168.168 0 01.166-.166h12.768a.166.166 0 01.167.166v6.423a5.666 5.666 0 01-1.658 3.998 5.657 5.657 0 01-3.994 1.658zm-7.115-11.913v6.256a5.321 5.321 0 005.324 5.328h1.794a5.321 5.321 0 003.764-1.56 5.33 5.33 0 001.56-3.768v-6.256H46.045z" fill="#24071D"/><path d="M58.647 33.04h12.767v6.412a5.495 5.495 0 01-1.607 3.883 5.485 5.485 0 01-3.88 1.609h-1.795a5.486 5.486 0 01-5.486-5.492V33.04z" fill="#fff"/><path d="M65.927 45.12h-1.793a5.656 5.656 0 01-3.996-1.659 5.666 5.666 0 01-1.658-3.998v-6.59h13.1v6.59a5.666 5.666 0 01-1.657 3.998 5.656 5.656 0 01-3.996 1.658zm-7.114-11.913v6.256a5.33 5.33 0 001.56 3.767c.998 1 2.352 1.56 3.764 1.56h1.792a5.321 5.321 0 003.764-1.56 5.33 5.33 0 001.56-3.767v-6.256h-12.44z" fill="#24071D"/><path d="M84.18 33.04v7.051c0 2.686-2.857 4.862-6.382 4.862-3.525 0-6.384-2.176-6.384-4.862v-7.05H84.18z" fill="#4D4E95"/><path d="M77.81 45.12c-3.612 0-6.551-2.256-6.551-5.029v-7.05a.169.169 0 01.166-.167h12.766a.166.166 0 01.166.166v7.051c-.01 2.773-2.948 5.028-6.548 5.028zm-6.212-11.913v6.882c0 2.588 2.789 4.695 6.211 4.695 3.423 0 6.211-2.107 6.211-4.695v-6.882H71.598z" fill="#24071D"/><path d="M58.646 33.04H45.88l1.007-19.556h10.753l1.007 19.556z" fill="#4D4E95"/><path d="M58.647 33.207H45.879a.164.164 0 01-.156-.109.171.171 0 01-.01-.066l1.006-19.554a.166.166 0 01.167-.158h10.753a.166.166 0 01.167.158l1.007 19.556a.165.165 0 01-.166.175v-.002zm-12.593-.333h12.422l-.99-19.223H47.043l-.99 19.223z" fill="#24071D"/><path d="M84.182 30.947v2.093H71.414l-2.41-19.562h8a4.356 4.356 0 014.268 3.472l2.502 12.032.408 1.965z" fill="#4D4E95"/><path d="M84.182 33.207H71.414a.164.164 0 01-.164-.144L68.84 13.504a.164.164 0 01.164-.186h8.001a4.542 4.542 0 014.436 3.603l2.91 13.986a.168.168 0 010 .033v2.096a.165.165 0 01-.102.158.167.167 0 01-.066.013zm-12.619-.333H84.02v-1.912L81.112 16.99a4.218 4.218 0 00-4.103-3.33h-7.817l2.371 19.214z" fill="#24071D"/><path d="M20.345 30.947v2.093h12.768l2.411-19.562h-8a4.356 4.356 0 00-4.269 3.472l-2.502 12.032-.408 1.965z" fill="#4D4E95"/><path d="M33.113 33.207H20.345a.166.166 0 01-.166-.167v-2.095a.168.168 0 010-.034l2.91-13.986a4.55 4.55 0 014.436-3.603h8.001a.165.165 0 01.164.187l-2.41 19.558a.167.167 0 01-.167.14zm-12.601-.333h12.452l2.372-19.223h-7.813a4.213 4.213 0 00-4.103 3.33L20.51 30.953v1.92z" fill="#24071D"/><path d="M17.129 54.115c-2.809 0-5.082 2.664-5.082 5.943 0-3.284-2.276-5.943-5.084-5.943 2.808 0 5.084-2.664 5.084-5.945 0 3.283 2.273 5.945 5.082 5.945z" fill="#fff"/><path d="M12.213 60.058h-.332c0-3.186-2.219-5.772-4.918-5.772v-.333c2.71 0 4.917-2.593 4.917-5.772h.333c0 3.185 2.205 5.772 4.916 5.772v.333c-2.71-.005-4.916 2.586-4.916 5.772zm-4.03-5.943c1.885.524 3.378 2.235 3.864 4.413.483-2.178 1.976-3.89 3.862-4.413-1.886-.524-3.379-2.236-3.862-4.416-.486 2.185-1.979 3.892-3.864 4.416z" fill="#24071D"/><path d="M87.181 7.85c-2.453 0-4.436 2.324-4.436 5.19 0-2.866-1.996-5.19-4.437-5.19 2.44 0 4.437-2.324 4.437-5.193-.002 2.869 1.983 5.193 4.436 5.193z" fill="#9FA0DF"/><path d="M82.911 13.034h-.333c0-2.77-1.918-5.024-4.274-5.024v-.333c2.356 0 4.274-2.256 4.274-5.026h.333c0 2.77 1.917 5.026 4.272 5.026v.333c-2.358.007-4.272 2.26-4.272 5.024zm-3.465-5.19c1.595.475 2.86 1.92 3.299 3.762.443-1.842 1.701-3.287 3.296-3.763-1.595-.475-2.86-1.922-3.296-3.774-.442 1.86-1.706 3.306-3.3 3.781l.001-.007z" fill="#24071D"/><path d="M95.907 43.226a1.795 1.795 0 00-2.495-.444l-.433.297-.308-.453a1.795 1.795 0 10-2.952 2.043l.3.433 2.038 2.955 2.952-2.04.444-.3a1.798 1.798 0 00.454-2.491z" fill="#4D4E95"/><path d="M92.066 48.223a.167.167 0 01-.138-.071l-2.338-3.39a1.964 1.964 0 011.967-3.046c.511.093.965.387 1.26.815l.205.297.295-.204a1.962 1.962 0 012.229 3.23l-3.385 2.34a.166.166 0 01-.095.029zm-.865-6.205a1.632 1.632 0 00-1.338 2.555l2.245 3.253 3.25-2.247a1.632 1.632 0 00.419-2.267 1.628 1.628 0 00-2.265-.415l-.444.3a.16.16 0 01-.124.027.164.164 0 01-.106-.07l-.3-.432a1.628 1.628 0 00-1.337-.704z" fill="#24071D"/><path d="M57.58 3.914c-.208 0-.415.034-.613.098a2.325 2.325 0 00-2.481-1.655c-.36.04-.704.162-1.008.358A3.265 3.265 0 0049.834.708a3.262 3.262 0 00-2.653 3.206 1.96 1.96 0 00-1.817 1.217 1.97 1.97 0 001.817 2.72h.148a.118.118 0 00.036 0H57.58a1.967 1.967 0 001.958-1.799v-.171a1.968 1.968 0 00-1.958-1.967z" fill="#CACBFF"/><path d="M28.725 3.714a1.773 1.773 0 10-.001-3.546 1.773 1.773 0 00.001 3.546z" fill="#4D4E95"/><path d="M28.725 3.88a1.938 1.938 0 01-1.902-2.316 1.941 1.941 0 012.64-1.418 1.939 1.939 0 01.635 3.163 1.942 1.942 0 01-1.373.572zm0-3.551a1.605 1.605 0 00-1.565 1.927 1.609 1.609 0 002.192 1.163 1.606 1.606 0 00.988-1.485A1.61 1.61 0 0028.725.333V.329z" fill="#24071D"/><path d="M4.993 38.712a1.46 1.46 0 10-.001-2.92 1.46 1.46 0 00.001 2.92z" fill="#4D4E95"/><path d="M4.993 38.879a1.625 1.625 0 01-1.595-1.945 1.628 1.628 0 012.217-1.186 1.626 1.626 0 01.527 2.654 1.628 1.628 0 01-1.149.477zm0-2.92a1.293 1.293 0 00-.914 2.211 1.293 1.293 0 10.914-2.21z" fill="#24071D"/><path d="M80.587 28.902a.164.164 0 01-.163-.129l-2.772-11.765a.166.166 0 01.064-.174.165.165 0 01.185-.007.167.167 0 01.075.103l2.772 11.766a.166.166 0 01-.124.2l-.037.006zM77.942 43.392a.167.167 0 01-.12-.27.167.167 0 01.103-.06c4.55-.444 4.3-4.292 4.287-4.456a.167.167 0 01.278-.15.167.167 0 01.053.123c0 .042.295 4.334-4.585 4.813h-.016zM52.227 43.392a.166.166 0 01-.119-.271.166.166 0 01.104-.06c4.549-.444 4.298-4.29 4.285-4.455a.167.167 0 11.333-.027c0 .042.293 4.334-4.585 4.813h-.018zM26.514 43.392a.17.17 0 01-.166-.149.167.167 0 01.148-.181c4.55-.444 4.301-4.292 4.288-4.456a.165.165 0 01.085-.174.166.166 0 01.245.147c0 .042.295 4.334-4.585 4.813h-.015zM79.584 65.337a.166.166 0 01-.166-.166v-8.758a.166.166 0 11.332 0v8.758a.169.169 0 01-.166.166zM79.584 70.57a.166.166 0 01-.166-.165l-.05-2.94a.168.168 0 01.165-.168.167.167 0 01.166.164l.049 2.938a.169.169 0 01-.164.17z" fill="#fff"/></svg><svg viewBox="0 0 1440 296" fill="none" id="footer-wave"><path fill-rule="evenodd" clip-rule="evenodd" d="M0 123.2l60-14.4c60-14.4 180-43.2 300-43.2S600 94.4 720 80 960 8 1080 .8c120-7.2 240 36 300 57.6l60 21.6v216H0V123.2z" fill="#E8E8E8"/></svg><svg viewBox="0 0 511 511" fill="#fff" id="gifts"><path d="M406.955 323.231a118.58 118.58 0 0012.907-32.543A67.322 67.322 0 00443.5 295c37.22 0 67.5-30.28 67.5-67.5v-40c0-37.22-30.28-67.5-67.5-67.5a67.39 67.39 0 00-20.5 3.218V103.5c0-12.958-10.542-23.5-23.5-23.5h-288C98.542 80 88 90.542 88 103.5v160c0 21.003 5.548 41.658 16.045 59.731 6.24 10.744 14.147 20.453 23.346 28.769H7.5a7.5 7.5 0 00-7.5 7.5C0 381.28 17.72 399 39.5 399h65.223c3.515 18.205 19.561 32 38.777 32h224c19.216 0 35.262-13.795 38.777-32H471.5c21.78 0 39.5-17.72 39.5-39.5a7.5 7.5 0 00-7.5-7.5H383.609c9.199-8.315 17.106-18.024 23.346-28.769zM423 187.5c0-11.304 9.196-20.5 20.5-20.5s20.5 9.196 20.5 20.5v40c0 11.304-9.196 20.5-20.5 20.5s-20.5-9.196-20.5-20.5v-40zm20.5-52.5c28.949 0 52.5 23.551 52.5 52.5v40c0 28.949-23.551 52.5-52.5 52.5-7.261 0-14.464-1.56-21.109-4.495.402-3.979.609-7.985.609-12.005v-7.045A35.293 35.293 0 00443.5 263c19.575 0 35.5-15.925 35.5-35.5v-40c0-19.575-15.925-35.5-35.5-35.5a35.293 35.293 0 00-20.5 6.545v-19.329A51.626 51.626 0 01443.5 135zm-76 281h-224c-10.895 0-20.151-7.147-23.326-17h270.652c-3.175 9.853-12.431 17-23.326 17zm104-32h-432c-10.895 0-20.151-7.147-23.326-17h344.79l.015.001.015-.001h133.832c-3.175 9.853-12.431 17-23.326 17zm-319.332-32C121.346 332.719 103 299.793 103 263.5v-160c0-4.687 3.813-8.5 8.5-8.5h288c4.687 0 8.5 3.813 8.5 8.5v160c0 4.942-.351 9.818-1.016 14.609a7.4 7.4 0 00-.191 1.307c-4.529 29.858-21.719 56.167-47.962 72.583H152.168z"/><path d="M383.5 143a7.5 7.5 0 007.5-7.5v-16a7.5 7.5 0 00-15 0v16a7.5 7.5 0 007.5 7.5zM391 239.5v-72a7.5 7.5 0 00-15 0v72a7.5 7.5 0 0015 0zM127.5 238.997a7.5 7.5 0 007.5-7.5v-15.995a7.5 7.5 0 00-15 0v15.995a7.5 7.5 0 007.5 7.5zM164.151 321.481C145.625 307.708 135 286.575 135 263.5a7.5 7.5 0 00-15 0c0 27.866 12.831 53.387 35.202 70.019a7.46 7.46 0 004.469 1.481 7.499 7.499 0 004.48-13.519z"/></svg><svg viewBox="0 0 92 72" fill="none" id="help"><path d="M34.494 3.563L19.1 5.3l2.29 20.228 15.395-1.738-2.29-20.228z" fill="#D6D6FF"/><path opacity=".26" d="M91.167 68.73H.491v1.255h90.676V68.73z" fill="#680000"/><path d="M61.183 18.391l-.146-.257a3.684 3.684 0 001.619-2.369c.253-1.43-.384-3.063-1.892-4.856l.227-.197c1.57 1.863 2.228 3.58 1.955 5.1a3.907 3.907 0 01-1.763 2.58zM91.264 68.878H.491a.148.148 0 110-.296h90.773a.149.149 0 01.148.148.148.148 0 01-.148.148z" fill="#24071D"/><path d="M12.825 33.517c.198-.395.656-.494 1.758.831l-1.758-.831z" fill="#fff"/><path d="M14.582 34.496a.15.15 0 01-.114-.053c-.791-.95-1.159-1.058-1.313-1.039-.051 0-.126.032-.198.176a.148.148 0 01-.197.071.149.149 0 01-.071-.197.542.542 0 01.429-.344c.377-.05.895.326 1.581 1.143a.148.148 0 01-.02.208.147.147 0 01-.097.035z" fill="#24071D"/><path d="M11.153 32.98c.075-.312.227-.592.527-.655 0 0 .667-.176 1.641 2.284" fill="#fff"/><path d="M13.321 34.757a.149.149 0 01-.138-.095c-.87-2.2-1.459-2.195-1.463-2.193-.198.043-.346.227-.423.544a.148.148 0 01-.232.086.149.149 0 01-.057-.155c.133-.546.423-.716.643-.764.124-.033.834-.084 1.809 2.37a.15.15 0 01-.083.197.186.186 0 01-.056.01z" fill="#24071D"/><path d="M21.065 49.575c1.504 4.352 3.266 8.61 5.496 12.648.352.636.73 1.283 1.303 1.731.877.681 2.1.79 3.18.531 5.016-1.169 9.282-6.242 10.14-11.195l-8.137-5.014-3.14 5.3c-2.29-4.643-6.422-16.593-8.144-18.146a2.57 2.57 0 00-1.999-.802" fill="#fff"/><path d="M29.963 64.761a3.542 3.542 0 01-2.19-.69c-.584-.454-.967-1.1-1.34-1.777-2.03-3.668-3.83-7.814-5.509-12.672a.148.148 0 01.041-.159.146.146 0 01.05-.029.148.148 0 01.198.091c1.673 4.843 3.468 8.973 5.486 12.635.372.675.726 1.267 1.263 1.686.765.592 1.88.78 3.057.505 4.709-1.098 9.094-5.907 10.009-10.978l-7.922-4.882-3.064 5.17a.148.148 0 01-.26-.01c-.88-1.777-2.011-4.592-3.207-7.565-1.902-4.72-3.867-9.6-4.903-10.536a2.456 2.456 0 00-1.89-.774.15.15 0 01-.149-.197.145.145 0 01.133-.099 2.698 2.698 0 012.113.847c1.09.987 3.063 5.899 4.972 10.639 1.141 2.835 2.222 5.517 3.078 7.304l3.001-5.062a.146.146 0 01.198-.05l8.137 5.015a.146.146 0 01.067.15c-.903 5.216-5.405 10.185-10.252 11.314a4.893 4.893 0 01-1.117.124z" fill="#24071D"/><path d="M21.065 49.575s-3.727-11.624-5.097-11.776l5.097 11.776z" fill="#fff"/><path d="M21.065 49.723a.153.153 0 01-.142-.103c-1.43-4.46-4.043-11.57-4.97-11.673a.15.15 0 01-.13-.106.15.15 0 01.014-.114.148.148 0 01.15-.074c.256.027.944.104 3.182 6.039a138.217 138.217 0 012.036 5.837.148.148 0 01-.14.194z" fill="#24071D"/><path d="M47.702 26.005l.066 10.39h8.404l-.064-10.39h-8.406z" fill="#fff"/><path d="M56.322 36.543h-8.699l-.067-10.686h8.698l.068 10.686zm-8.408-.286h8.105l-.06-10.104h-8.105l.06 10.104z" fill="#24071D"/><path opacity=".26" d="M47.771 28.07v2.253c1.135 1.204 3.482 1.57 8.337-2.079l.13-.097-.13.075c-.727.403-4.41 2.211-8.337-.152z" fill="#680000"/><path d="M51.61 29.436A8.343 8.343 0 0057.505 27a8.32 8.32 0 002.441-5.885v-6.891a7.691 7.691 0 00-2.258-5.444 7.71 7.71 0 00-5.452-2.255h-1.24c-4.26 0-8.115 3.127-7.988 7.94l.275 6.656A8.316 8.316 0 0045.723 27a8.339 8.339 0 005.888 2.436z" fill="#fff"/><path d="M51.61 29.584a8.507 8.507 0 01-5.99-2.486 8.482 8.482 0 01-2.49-5.983l-.275-6.65c-.058-2.196.684-4.146 2.14-5.64a8.387 8.387 0 015.997-2.454h1.24a7.878 7.878 0 015.557 2.303 7.855 7.855 0 012.305 5.55v6.891a8.483 8.483 0 01-2.49 5.984 8.507 8.507 0 01-5.993 2.485zm-.618-22.917a8.094 8.094 0 00-5.783 2.369 7.302 7.302 0 00-2.058 5.423l.275 6.652a8.164 8.164 0 002.352 5.863 8.187 8.187 0 005.834 2.44 8.197 8.197 0 005.833-2.44 8.175 8.175 0 002.352-5.863v-6.887a7.56 7.56 0 00-2.218-5.341 7.581 7.581 0 00-5.348-2.216h-1.24z" fill="#24071D"/><path d="M74.986 54.814c-3.568.79-7.773.758-9.315.987-.346.051.12 2.853.128 3.202l.214 2.981v.02a.737.737 0 01-.744.76H40.287a.742.742 0 01-.736-.745v-.039l.054-5.156c.024-.449-.198-.895-.441-1.272-1.63-2.483-5.607-2.894-7.853-4.248a64.036 64.036 0 00-1.336-.79.737.737 0 01-.356-.742.214.214 0 010-.05l2.543-6.388c.201-.506.421-.998.66-1.474.438-.89.965-1.733 1.572-2.517a10.73 10.73 0 015.444-3.816l7.512-2.26a.747.747 0 01.64.104c4.152 2.979 7.072.898 7.966.079a.754.754 0 01.71-.17l7.951 2.262a10.648 10.648 0 017.263 7.14l3.418 11.29c.091.317.01.769-.312.842z" fill="#6667AB"/><path d="M65.27 62.908H40.286a.892.892 0 01-.89-.889v-.039l.053-5.158c.018-.346-.118-.73-.417-1.185-1.032-1.58-3.03-2.294-4.964-2.989-1.05-.377-2.042-.734-2.84-1.214-.558-.34-1.003-.592-1.268-.752l-.067-.038a.886.886 0 01-.429-.882c0-.027.004-.053.012-.079l2.548-6.402c.198-.521.431-1.023.664-1.487.44-.897.97-1.748 1.582-2.54a10.873 10.873 0 015.517-3.866l7.513-2.262a.897.897 0 01.769.126c3.987 2.863 6.767 1.017 7.777.091a.896.896 0 01.852-.197l7.96 2.252a10.75 10.75 0 014.612 2.678 10.728 10.728 0 012.754 4.563l3.418 11.288a1 1 0 01-.07.766.532.532 0 01-.348.263c-2.403.527-5.098.689-7.065.807-.921.056-1.72.105-2.224.176-.123.273.075 1.836.15 2.436.04.306.067.527.07.62L66.168 62a.884.884 0 01-.892.908h-.008zM47.56 33.38a.638.638 0 00-.172.025l-7.512 2.26a10.596 10.596 0 00-5.372 3.765c-.6.777-1.122 1.611-1.556 2.492-.229.458-.45.95-.654 1.463l-2.542 6.39a.604.604 0 00.286.608l.066.04c.266.153.713.412 1.273.754.773.463 1.751.817 2.787 1.184 1.977.713 4.025 1.447 5.11 3.105.337.512.489.956.465 1.36l-.051 5.189a.592.592 0 00.593.592h24.988a.594.594 0 00.556-.377.591.591 0 00.04-.231v-.024l-.218-2.967c0-.083-.032-.322-.067-.592-.27-2.119-.255-2.713.065-2.764.514-.077 1.295-.124 2.285-.184 1.957-.118 4.638-.278 7.02-.801a.232.232 0 00.157-.123.73.73 0 00.041-.53l-3.42-11.289a10.436 10.436 0 00-7.162-7.041l-7.95-2.263a.594.594 0 00-.571.138c-.828.76-3.869 3.003-8.151-.069a.575.575 0 00-.334-.11z" fill="#24071D"/><path opacity=".26" d="M50.926 34.9l-.106-.025.075.041.031-.015zM54.936 34.198l7.435 2.24c3.733 1.122 6.411 4.476 7.781 8.108l3.505 11.036c.61-.37 1.082-.644 1.337-.79a.737.737 0 00.356-.742L72.03 43.25c-.16-.505-.352-1-.575-1.482a11.254 11.254 0 00-7.144-6.167l-7.513-2.265a.75.75 0 00-.642.105 9.761 9.761 0 01-1.22.756zM49.34 34.283c.468.25.962.448 1.472.592a11.96 11.96 0 01-.761-.501.727.727 0 00-.64-.103l-.07.012z" fill="#680000"/><path d="M47.768 22.797c0 .788.313 1.544.871 2.101a2.978 2.978 0 005.08-2.1h-5.951z" fill="#DF554B"/><path d="M50.743 25.916a3.12 3.12 0 01-3.124-3.12v-.147h6.247v.148c0 .318-.048.633-.144.936a3.108 3.108 0 01-2.98 2.183zm-2.823-2.97a2.821 2.821 0 002.467 2.651 2.83 2.83 0 003.052-1.953c.073-.226.115-.461.127-.699H47.92z" fill="#24071D"/><path d="M47.767 22.797c0 .302.046.603.137.89h5.684c.09-.287.136-.588.136-.89h-5.956z" fill="#fff"/><path d="M53.69 23.836h-5.895l-.032-.103a3.124 3.124 0 01-.144-.936v-.148h6.247v.148c0 .318-.048.633-.144.936l-.032.103zm-5.675-.296h5.456c.053-.194.085-.392.095-.593H47.92c.01.2.042.399.094.593z" fill="#24071D"/><path d="M43.001 13.495c.25-2.272.662-3.326 3.11-4.12 0 0 8.038 2.442 11.917.243 0 0 .306 1.844 1.368 3.007.89.973.383 4.363.269 5.827l.593.06c.354-1.495 1.215-4.184 1.308-4.975.058-.5.271-2.482.362-3.897a6.961 6.961 0 00-.706-3.6 4.7 4.7 0 00-1.338-1.671C57.8 2.819 46.81.65 43.928 2.618c-3.177 2.171-.89 10.397-.89 10.397" fill="#6667B1"/><path d="M60.262 18.66h-.016l-.593-.058a.146.146 0 01-.133-.16c.016-.219.042-.48.072-.771.152-1.558.409-4.164-.303-4.936-.884-.967-1.253-2.369-1.366-2.88-1.64.847-4.102 1.056-7.327.622a32.67 32.67 0 01-4.481-.938c-2.373.79-2.728 1.818-2.966 3.982a.145.145 0 01-.105.125.149.149 0 01-.19-.157c.017-.142.032-.28.05-.414v-.01a26.06 26.06 0 01-.751-4.414c-.237-3.145.334-5.212 1.698-6.146C46.757.531 57.84 2.667 59.98 4.26c.59.46 1.063 1.05 1.384 1.724a7.13 7.13 0 01.725 3.666 95.68 95.68 0 01-.363 3.902c-.056.47-.362 1.55-.686 2.693-.234.821-.475 1.67-.625 2.3a.148.148 0 01-.152.115zm-.437-.34l.322.032c.15-.62.378-1.416.593-2.188.309-1.082.627-2.2.678-2.645.052-.444.27-2.43.362-3.89a6.812 6.812 0 00-.68-3.521 4.52 4.52 0 00-1.295-1.62C57.705 2.925 46.856.802 44.021 2.74c-2.536 1.733-1.445 7.599-.988 9.577.304-1.518.959-2.407 3.042-3.084a.17.17 0 01.09 0c.08.024 8.02 2.399 11.8.257a.145.145 0 01.136 0 .146.146 0 01.083.108c0 .018.312 1.814 1.332 2.932.801.876.546 3.46.378 5.172-.032.223-.053.432-.07.618z" fill="#24071D"/><path opacity=".26" d="M42.981 13.075l-.041.48c.148-1.331.348-2.243.988-2.93-.395-2.6-.55-6.347 1.441-7.7 1.408-.959 4.745-.933 8.039-.477-3.725-.663-7.908-.867-9.533.24-3.181 2.16-.894 10.387-.894 10.387z" fill="#680000"/><path d="M59.546 21.897c1.123-.219 2.39-1.184 2.39-2.456 0-1.449-.976-2.625-2.174-2.625-.052 0-.244.043-.295.047" fill="#fff"/><path d="M59.574 22.043l-.058-.29c1.094-.213 2.272-1.157 2.272-2.31 0-1.366-.911-2.477-2.032-2.477-.05.005-.1.013-.149.023a1.566 1.566 0 01-.132.024l-.028-.294.105-.02a1.19 1.19 0 01.198-.03c1.285 0 2.328 1.244 2.328 2.764.01 1.329-1.27 2.367-2.504 2.61z" fill="#24071D"/><path d="M50.5 63.682c3.558-.942 12.508-2.764 16.813-2.612l-1.553-5.196 8.98-.892 1.582 5.302a5.997 5.997 0 01-2.319 7.234 6.02 6.02 0 01-2.558.927c-3.794.458-12.678.593-20.281.456l-.23-.013" fill="#fff"/><path d="M57.01 69.1c-2.019 0-4.012-.017-5.834-.05l-.238-.014.02-.297c.073 0 .148.012.224.014 6.89.127 16.169.04 20.26-.456a5.867 5.867 0 004.335-2.811 5.848 5.848 0 00.42-5.145l-1.555-5.196-8.689.853 1.562 5.222h-.207c-4.23-.156-13.153 1.65-16.77 2.606l-.076-.287c3.574-.943 12.312-2.714 16.652-2.621l-1.548-5.17 9.291-.924 1.624 5.42a6.147 6.147 0 01-2.384 7.401 6.167 6.167 0 01-2.618.948c-3.02.364-8.85.508-14.47.508z" fill="#24071D"/><path d="M50.5 63.682h-.014c-.368.077-10.769 2.44-13.06 4.974a1.17 1.17 0 001.41 1.633c1.87-.61 5.104-2.385 6.63-1.915 0 0 4.055.997 5.482.511" fill="#fff"/><path d="M38.468 70.498a1.329 1.329 0 01-1.32-1.258 1.323 1.323 0 01.134-.649.132.132 0 01.023-.033c2.349-2.596 13.034-4.997 13.141-5.018a.146.146 0 01.186.144.148.148 0 01-.125.146c-.104.023-10.65 2.39-12.968 4.913a1.024 1.024 0 001.241 1.41c.52-.17 1.15-.432 1.817-.709 1.76-.732 3.756-1.561 4.903-1.208.033 0 4.02.987 5.391.513a.15.15 0 01.193.091.147.147 0 01-.098.19c-1.451.493-5.397-.468-5.565-.508-1.054-.324-2.995.482-4.71 1.195-.673.28-1.308.544-1.838.716-.13.043-.267.065-.405.065z" fill="#24071D"/><path d="M50.486 63.832a.149.149 0 01-.117-.24.149.149 0 01.093-.054.146.146 0 01.186.144.148.148 0 01-.125.146l-.037.004z" fill="#24071D"/><path opacity=".26" d="M37.513 68.682c2.293-2.535 12.775-4.781 13.143-4.858h.014c2.392-.634 4.827-1.125 7.26-1.566 2.824-.509 5.706-.997 8.58-1.05h.975c-.71-1.834-1-3.494-1.71-5.33l1.598-.21c.615 1.063.812 1.951 1.427 3.013l.921 1.593c.072.123.564 1.197.696 1.203-.522-.022-1.075.236-1.581.349-.591.127-1.189.222-1.79.286-1.725.198-3.445.37-5.163.636-.51.079-1.02.162-1.53.249s-1.009.174-1.495.262c-.476.089-.95.178-1.427.273a79.22 79.22 0 00-1.329.272l-1.204.263c-.348.08-.696.162-1.044.248-.68.17-1.308.25-1.977.437-.351.096-2.427.616-2.78.708-2.652.691-9.923 2.207-11.6 3.978-.275.091-.15-.069.16.549.461.932-.302-.266-.144-1.305z" fill="#680000"/><path d="M70.326 61.601c-.01 0-.988-.733-3.315-.622l-.014-.296c2.455-.117 3.47.651 3.511.683l-.182.235.091-.117-.09.117z" fill="#24071D"/><path d="M43.831 8.878a.148.148 0 01-.144-.12c-.731-3.752 1.202-5.528 1.285-5.603a.15.15 0 01.21.012.15.15 0 01-.012.209c-.02.016-1.888 1.747-1.187 5.33a.148.148 0 01-.116.174l-.036-.002zM69.34 43.166a.15.15 0 01-.139-.096c-2.57-6.79-9.414-6.977-9.489-6.977a.15.15 0 01-.135-.207.146.146 0 01.139-.089c.071 0 7.117.188 9.756 7.168a.147.147 0 01-.085.197.168.168 0 01-.047.005zM33.787 9.86c0-1.973-1.372-3.588-3.088-3.596 1.716 0 3.113-1.58 3.123-3.565-.01 1.974 1.374 3.589 3.088 3.597-1.708-.008-3.113 1.585-3.123 3.565z" fill="#fff"/><path d="M33.925 9.86h-.277a3.714 3.714 0 00-.864-2.445 2.753 2.753 0 00-2.085-1.01v-.277a2.742 2.742 0 002.095-.987c.582-.681.898-1.55.89-2.444h.277c-.01 1.897 1.314 3.448 2.951 3.456v.277c-1.64-.01-2.98 1.532-2.987 3.43zM31.58 6.269c.551.186 1.04.52 1.414.965.38.45.65.98.79 1.55.327-1.208 1.177-2.154 2.242-2.491-1.063-.35-1.903-1.303-2.216-2.515a3.82 3.82 0 01-.814 1.54c-.375.44-.865.77-1.416.95z" fill="#24071D"/><path d="M32.943 68.487H65.76a1.885 1.885 0 011.884 1.881v1.297H32.942v-3.178z" fill="#4D4E95"/><path d="M67.792 71.813H32.8V68.34h32.96a2.038 2.038 0 012.032 2.03v1.444zm-34.701-.296h34.398v-1.149a1.734 1.734 0 00-1.735-1.733H33.09v2.882z" fill="#24071D"/><path d="M53.337 71.665H21.199l-7.233-21.854a1.84 1.84 0 011.751-2.42H43.97a1.844 1.844 0 011.75 1.264l7.617 23.01z" fill="#4D4E95"/><path d="M53.542 71.813h-32.45L13.827 49.86a1.988 1.988 0 011.891-2.616H43.97a1.993 1.993 0 011.892 1.366l7.68 23.204zm-32.236-.296h31.829l-7.556-22.823a1.69 1.69 0 00-1.61-1.163H15.718a1.699 1.699 0 00-1.61 2.225l7.2 21.761z" fill="#24071D"/><path d="M21.186 35.995s-1.256-2.521-5.376-1.906l-2.947.616-2.527-2.566a.818.818 0 00-.77-.235c-.38.097-.657.259-.226 1.55 0 0 1.087 2.294 2.2 3.332.168.159.372.276.593.344.87.26 3.658.892 5.203.592" fill="#fff"/><path d="M16.37 37.953c-1.637 0-3.71-.508-4.279-.677a1.656 1.656 0 01-.658-.378c-1.12-1.036-2.188-3.282-2.232-3.377-.25-.745-.294-1.185-.152-1.447a.667.667 0 01.472-.308.96.96 0 01.914.274l2.471 2.503 2.874-.592c2.175-.328 3.559.223 4.35.742.49.313.896.739 1.186 1.242a.148.148 0 01-.123.213.147.147 0 01-.142-.08c-.051-.1-1.267-2.417-5.22-1.825l-2.947.612a.147.147 0 01-.134-.041l-2.529-2.566a.662.662 0 00-.628-.198c-.145.038-.238.075-.285.162-.097.178-.042.58.166 1.196 0 0 1.08 2.265 2.159 3.271.154.144.34.251.542.312.68.198 3.544.897 5.14.593a.147.147 0 01.16.06.147.147 0 01-.003.17.148.148 0 01-.102.06 5.33 5.33 0 01-1 .079zM54.363 26.096l-.135-.262a13.036 13.036 0 006.02-6.555l.279.097a13.32 13.32 0 01-6.164 6.72z" fill="#24071D"/><path d="M53.12 25.526l1.23-.54.665 1.51-1.23.54a.828.828 0 01-1.09-.416.824.824 0 01.423-1.088l.002-.006z" fill="#4D4E95"/><path d="M53.453 27.259a.976.976 0 01-.873-1.42.975.975 0 01.478-.446l1.364-.592.79 1.777-1.362.592a.991.991 0 01-.397.089zm.819-2.073l-1.094.48a.675.675 0 00.027 1.25.68.68 0 00.519-.01l1.091-.48-.543-1.24zM60.948 19.854l-.295-.036a1.085 1.085 0 00-.188-.876.872.872 0 00-.575-.263v-.296c.3.012.584.141.79.36.238.262.325.635.268 1.11zM58.597 70.329c-.199 0-.398-.02-.593-.06a.148.148 0 01.06-.29c.79.16 1.629-.043 2.423-.592a6.198 6.198 0 002.436-3.865c.395-2.397-.54-4.811-1.364-6.94-.791-2.05-1.78-4.603-1.347-7.106.34-1.943 1.491-3.613 2.606-5.23 1.115-1.617 2.285-3.318 2.57-5.255.395-2.624-.93-5.247-1.957-6.992-.271-.462-.56-.93-.838-1.382-1.03-1.664-2.092-3.386-2.608-5.303-.878-3.257.322-5.843 1.902-6.963a.146.146 0 01.198.036.148.148 0 01-.034.197c-1.495 1.06-2.627 3.526-1.79 6.645.507 1.876 1.559 3.577 2.57 5.224.282.454.57.922.845 1.382 1.05 1.776 2.398 4.47 1.995 7.186-.299 2.005-1.481 3.72-2.626 5.38-1.095 1.59-2.228 3.233-2.556 5.112-.425 2.416.548 4.926 1.33 6.943.839 2.172 1.78 4.618 1.384 7.093a6.514 6.514 0 01-2.56 4.063c-.593.44-1.307.69-2.046.717z" fill="#24071D"/><path d="M62.816 18.778c.333-1.29-.368-2.586-1.566-2.894-1.197-.309-2.438.487-2.771 1.778-.333 1.29.368 2.586 1.565 2.894 1.198.308 2.44-.488 2.772-1.778z" fill="#4D4E95"/><path d="M60.806 21.143c-.194 0-.387-.024-.574-.073a2.298 2.298 0 01-1.441-1.159 2.691 2.691 0 01.925-3.49 2.269 2.269 0 013.266.86c.312.591.387 1.277.212 1.921a2.645 2.645 0 01-1.131 1.57 2.35 2.35 0 01-1.258.371zm.16-4.797a2.046 2.046 0 00-1.096.326 2.399 2.399 0 00-.818 3.099 1.975 1.975 0 002.079 1.05c.274-.045.536-.147.768-.3.499-.32.858-.819 1.004-1.394a2.34 2.34 0 00-.186-1.705 1.995 1.995 0 00-1.255-1.013 2.025 2.025 0 00-.496-.063z" fill="#24071D"/><path d="M61.835 18.848c.15-.564-.155-1.133-.678-1.271-.524-.138-1.07.207-1.218.771-.15.564.155 1.133.678 1.271.524.138 1.07-.207 1.218-.771z" fill="#6667AB"/><path d="M60.847 19.797a1.08 1.08 0 01-.953-.584 1.264 1.264 0 01.433-1.64 1.078 1.078 0 011.55.407c.145.278.18.6.099.903a1.185 1.185 0 01-1.129.914zm.073-2.105a.822.822 0 00-.435.13.971.971 0 00-.33 1.25.79.79 0 00.498.395.878.878 0 001.036-.667.946.946 0 00-.075-.687.79.79 0 00-.498-.395.804.804 0 00-.196-.018v-.008zM57.965 70.629c.179 0 .324-.25.324-.559 0-.308-.145-.559-.324-.559-.18 0-.325.25-.325.559 0 .309.145.559.325.559zM56.16 70.629c.179 0 .324-.25.324-.559 0-.308-.145-.559-.325-.559-.179 0-.324.25-.324.559 0 .309.145.559.324.559z" fill="#24071D"/><path d="M31.175 33.618a3.659 3.659 0 003.661-3.657c0-2.019-1.639-3.656-3.66-3.656a3.659 3.659 0 00-3.662 3.657c0 2.019 1.639 3.656 3.661 3.656z" fill="#4D4E95"/><path d="M31.175 33.766a3.813 3.813 0 01-3.52-2.349 3.8 3.8 0 01.826-4.145 3.811 3.811 0 016.504 2.69 3.805 3.805 0 01-1.117 2.688 3.817 3.817 0 01-2.693 1.116zm0-7.305a3.517 3.517 0 00-3.245 2.166 3.504 3.504 0 002.56 4.783 3.517 3.517 0 003.606-1.492 3.504 3.504 0 00.326-3.293 3.512 3.512 0 00-3.247-2.172v.008z" fill="#24071D"/><path d="M70.006 10.117c2.761 0 5-2.235 5-4.992a4.996 4.996 0 00-5-4.993c-2.761 0-5 2.236-5 4.993a4.996 4.996 0 005 4.992z" fill="#6667AB"/><path d="M70.006 10.265a5.145 5.145 0 01-4.749-3.168 5.127 5.127 0 011.114-5.594 5.142 5.142 0 018.775 3.63 5.143 5.143 0 01-1.51 3.625 5.157 5.157 0 01-3.63 1.508zm0-9.983a4.856 4.856 0 00-4.484 2.99 4.839 4.839 0 001.052 5.28 4.853 4.853 0 008.281-3.427 4.844 4.844 0 00-1.422-3.423 4.859 4.859 0 00-3.427-1.42zM32.638 31.596l-1.578-1.573v-2.96h.297V29.9l1.49 1.487-.209.21z" fill="#24071D"/><path d="M71.991 8.155c-.517.09-1.05.017-1.522-.211-.39-.19-.751-.437-1.07-.732A8.87 8.87 0 0167.6 5.054a2.989 2.989 0 01-.362-.936 1.84 1.84 0 01.362-1.48c.137-.2.305-.375.498-.52.085-.056.176-.101.271-.134a.299.299 0 01.297.051.84.84 0 01.126.125c.282.346.528.72.736 1.115.025.053.047.108.065.164a.21.21 0 01-.099.25c-.08.052-.164.098-.251.139-.11.051-.225.097-.338.144-.198.08-.255.197-.198.377.088.222.203.432.342.626A6.518 6.518 0 0070.483 6.5c.084.065.172.124.264.177a.336.336 0 00.477-.078c.085-.095.166-.198.253-.287.055-.058.115-.112.18-.16a.269.269 0 01.302-.025c.058.029.114.062.166.1.365.263.706.558 1.019.88.03.033.06.067.084.104a.276.276 0 01-.017.369.943.943 0 01-.289.23 3.1 3.1 0 01-.931.344z" fill="#fff"/><path d="M71.544 8.337c-.394 0-.784-.088-1.139-.259a4.548 4.548 0 01-1.105-.756 8.932 8.932 0 01-1.828-2.193 3.098 3.098 0 01-.378-.987 1.986 1.986 0 01.395-1.595c.145-.212.324-.398.53-.551a1.41 1.41 0 01.305-.152.456.456 0 01.439.075.916.916 0 01.152.15c.287.353.538.735.749 1.139.031.064.057.13.077.197a.361.361 0 01-.16.417 2.353 2.353 0 01-.269.148c-.073.034-.15.065-.225.097l-.119.05c-.144.062-.136.116-.109.197.082.21.19.409.323.592.384.57.857 1.073 1.401 1.492.08.062.164.118.251.168a.198.198 0 00.29-.05l.082-.092c.057-.067.115-.132.176-.198.06-.064.127-.123.198-.175a.43.43 0 01.46-.04c.063.034.125.071.184.11.372.27.72.57 1.038.901.037.037.07.078.1.12a.422.422 0 01-.023.547c-.093.11-.206.2-.334.267a3.19 3.19 0 01-.989.361 3.22 3.22 0 01-.472.02zm-3.07-6.233a.198.198 0 00-.056 0c-.082.03-.161.07-.235.119-.18.134-.337.299-.462.486a1.677 1.677 0 00-.336 1.366c.063.313.18.613.343.888a8.634 8.634 0 001.78 2.12c.308.286.656.525 1.034.709.446.215.949.284 1.437.197.312-.058.612-.169.888-.325a.79.79 0 00.245-.198c.065-.083.057-.126.012-.197a.668.668 0 00-.07-.083 7.315 7.315 0 00-.998-.865 1.233 1.233 0 00-.148-.089.125.125 0 00-.147.012c-.057.043-.11.09-.16.142a2.078 2.078 0 00-.166.198l-.083.096a.487.487 0 01-.664.11 3.307 3.307 0 01-.28-.188 6.73 6.73 0 01-1.466-1.56 2.985 2.985 0 01-.357-.66.418.418 0 01.27-.564l.121-.05c.073-.029.144-.059.213-.092.081-.037.16-.08.234-.128.047-.032.045-.058.037-.085a.8.8 0 00-.055-.139 6.547 6.547 0 00-.72-1.091.71.71 0 00-.102-.099.158.158 0 00-.11-.03z" fill="#24071D"/><path d="M13.62 4.037c.275 0 .55 0 .824.012a.297.297 0 01.275.314.279.279 0 01-.287.294c-.245 0-.494-.016-.74 0-1.842.182-3.36 1.615-3.815 3.609 0 .017 0 .037-.013.057a.264.264 0 01-.335.213.316.316 0 01-.197-.379c.078-.375.196-.74.354-1.09.71-1.558 1.83-2.532 3.36-2.923.086-.022.17-.042.258-.056.086-.013.197-.021.312-.033l.004-.018z" fill="#D6D6FF"/><path d="M13.786 5.247h.492a.292.292 0 01.28.306.274.274 0 01-.278.302 2.969 2.969 0 00-.886.087c-1.24.344-2.054 1.194-2.443 2.553-.038.132-.091.237-.222.262-.211.044-.375-.166-.316-.406a4.34 4.34 0 01.593-1.367 3.77 3.77 0 012.78-1.737z" fill="#D6D6FF"/><path d="M13.863 6.471c.081 0 .162-.023.245-.023a.295.295 0 01.293.31.285.285 0 01-.281.3c-.945 0-1.78.669-2.096 1.67-.051.16-.14.24-.262.24a.307.307 0 01-.266-.414c.101-.356.267-.69.489-.987a2.633 2.633 0 011.878-1.096z" fill="#D6D6FF"/><path d="M25.574 21.664a.461.461 0 01-.288.14l-13.471 1.457a.477.477 0 01-.522-.42l-1.022-9.43v-.088a.463.463 0 01.126-.375.459.459 0 01.293-.146l13.473-1.457a.466.466 0 01.516.419l.012.112 1.022 9.407a.472.472 0 01-.139.381z" fill="#fff"/><path d="M11.765 23.411a.623.623 0 01-.62-.554l-1.032-9.518a.621.621 0 01.551-.685l13.467-1.457a.625.625 0 01.686.551l.012.113 1.02 9.406a.626.626 0 01-.553.685l-13.471 1.455a.367.367 0 01-.06.004zM24.206 11.49h-.037l-13.481 1.46a.324.324 0 00-.27.22.328.328 0 00-.015.139v.087l1.036 9.438a.333.333 0 00.139.233.34.34 0 00.22.055l13.472-1.473a.322.322 0 00.288-.357l-1.032-9.513a.33.33 0 00-.32-.29v.002z" fill="#24071D"/><path d="M25.574 21.664a.46.46 0 01-.288.14l-13.471 1.457a.476.476 0 01-.32-.083l4.942-5.709 1.095-1.267a.477.477 0 01.645-.071l1.35 1.01 6.047 4.523z" fill="#fff"/><path d="M11.765 23.411a.621.621 0 01-.355-.11l-.135-.095 6.144-7.107a.625.625 0 01.845-.093l7.534 5.642-.117.12a.631.631 0 01-.378.186L11.832 23.41a.365.365 0 01-.066.002zm-.02-.296h.054l13.47-1.467a.13.13 0 00.04 0l-7.223-5.4a.328.328 0 00-.443.049l-5.897 6.818z" fill="#24071D"/><path opacity=".26" d="M24.611 11.823l-4.847 5.666-1.202 1.405a.532.532 0 01-.714.083l-1.516-1.093-6.077-4.389v-.087a.455.455 0 01.12-.37.475.475 0 01.293-.149l13.416-1.58a.478.478 0 01.458.219.465.465 0 01.067.188l.002.107z" fill="#680000"/><path d="M24.471 11.454l-4.942 5.725-1.095 1.267a.473.473 0 01-.643.07l-1.356-1.013-6.047-4.521a.468.468 0 01.294-.146l13.47-1.453a.477.477 0 01.32.071z" fill="#4D4E95"/><path d="M18.07 18.75a.62.62 0 01-.372-.124l-7.532-5.63.113-.12a.625.625 0 01.395-.198l13.457-1.451a.61.61 0 01.42.104l.136.095-6.15 7.107a.628.628 0 01-.467.217zm-7.422-5.764l7.228 5.403a.327.327 0 00.44-.047l5.904-6.823h-.051l-13.471 1.457-.05.01zM12.101 24.874a3.132 3.132 0 01-2.6-1.467.148.148 0 01.04-.197.15.15 0 01.198.04c.989 1.482 2.444 1.336 2.507 1.33a.148.148 0 11.034.294c-.01-.008-.072 0-.178 0z" fill="#24071D"/><path d="M85.219 28.645a.53.53 0 01-.323.156L69.8 30.433a.527.527 0 01-.515-.255.53.53 0 01-.073-.215l-1.144-10.571-.012-.099a.535.535 0 01.472-.584l15.102-1.633a.509.509 0 01.356.091.524.524 0 01.23.38l.011.123 1.145 10.546a.533.533 0 01-.152.429z" fill="#fff"/><path d="M69.731 30.585a.684.684 0 01-.676-.606L67.9 19.32a.675.675 0 01.603-.748l15.101-1.633a.683.683 0 01.748.592l.014.125L85.509 28.2a.674.674 0 01-.198.546.69.69 0 01-.413.198l-15.1 1.636-.067.004zM83.68 17.22h-.042l-15.102 1.633a.385.385 0 00-.34.422l.01.1 1.147 10.57a.395.395 0 00.423.34l15.1-1.632a.37.37 0 00.233-.115.38.38 0 00.109-.308l-1.159-10.66a.395.395 0 00-.378-.342l-.002-.008z" fill="#24071D"/><path d="M85.219 28.645a.53.53 0 01-.323.156L69.8 30.433a.536.536 0 01-.36-.09l5.535-6.403 1.23-1.421a.532.532 0 01.712-.08l1.516 1.132 6.787 5.074z" fill="#fff"/><path d="M69.731 30.585a.683.683 0 01-.395-.122l-.135-.093 6.874-7.948a.68.68 0 01.921-.099l8.432 6.302-.117.122a.684.684 0 01-.413.198l-15.1 1.636-.067.004zm-.055-.3a.522.522 0 00.097 0l15.102-1.632a.588.588 0 00.08-.018l-8.127-6.077a.395.395 0 00-.52.056l-6.632 7.671z" fill="#24071D"/><path opacity=".26" d="M84.133 17.611l-5.438 6.351-1.35 1.58a.593.593 0 01-.791.094l-1.7-1.224-6.815-4.925-.012-.097a.526.526 0 01.465-.582L83.53 17.03a.535.535 0 01.514.246c.04.064.066.137.075.212l.014.122z" fill="#680000"/><path d="M83.977 17.199l-5.545 6.408-1.23 1.421a.53.53 0 01-.72.077l-1.516-1.133-6.779-5.068a.53.53 0 01.33-.163l15.102-1.633a.538.538 0 01.358.09z" fill="#6667AB"/><path d="M76.8 25.358a.677.677 0 01-.406-.134l-8.428-6.3.113-.12a.673.673 0 01.423-.21l15.102-1.632a.66.66 0 01.456.114l.137.095-6.886 7.954a.678.678 0 01-.51.233zm-8.36-6.448l8.132 6.077a.396.396 0 00.52-.056l6.638-7.675a.377.377 0 00-.095 0l-15.102 1.629a.304.304 0 00-.093.025zM85.568 16.983a.144.144 0 01-.112-.053c-1.307-1.532-2.912-1.184-2.98-1.168a.147.147 0 01-.158-.222.15.15 0 01.091-.067c.075-.018 1.845-.408 3.272 1.266a.15.15 0 01-.016.209.154.154 0 01-.097.035zM73.357 10.552a.151.151 0 01-.129-.075.15.15 0 01.058-.198c2.57-1.435 2.524-3.904 2.524-3.928a.15.15 0 01.2-.145.148.148 0 01.097.135c0 .026.057 2.675-2.677 4.199a.16.16 0 01-.073.012z" fill="#24071D"/></svg><svg viewBox="0 0 212.852 212.852" fill="#fff" id="key"><path d="M192.162 23.09C178.799 9.726 161.031 2.367 142.133 2.367c-18.899 0-36.667 7.359-50.03 20.724-22.74 22.739-26.716 57.225-11.968 84.095l-19.938 19.938c-.335-.414-.69-.815-1.072-1.197l-14.15-14.15a14.985 14.985 0 00-10.666-4.418 14.985 14.985 0 00-10.666 4.418c-5.882 5.882-5.882 15.451 0 21.333l14.15 14.151c.382.381.782.736 1.196 1.071l-5.405 5.405-7.833-7.833a14.982 14.982 0 00-10.666-4.419c-4.03 0-7.818 1.569-10.666 4.419C1.569 148.751 0 152.539 0 156.569s1.569 7.817 4.419 10.666l7.86 7.861c-7.666 8.251-7.507 21.189.521 29.22 3.979 3.979 9.271 6.17 14.897 6.17s10.918-2.191 14.897-6.171l67.895-67.895c9.704 4.863 20.471 7.453 31.642 7.453 18.898 0 36.666-7.359 50.029-20.724 27.589-27.586 27.589-72.473.002-100.059zm-31.819 68.239c-10.057 10.057-26.363 10.057-36.42 0s-10.057-26.363 0-36.42 26.363-10.057 36.42 0 10.057 26.363 0 36.42z"/></svg><svg viewBox="0 0 15 18" fill="#fff" id="nav-marker"><path d="M7.5 18l-5.303-5.272A7.442 7.442 0 01.144 8.91a7.415 7.415 0 01.427-4.307 7.466 7.466 0 012.762-3.346 7.532 7.532 0 018.334 0 7.466 7.466 0 012.762 3.346 7.415 7.415 0 01.427 4.307 7.442 7.442 0 01-2.053 3.818L7.5 18zm4.125-6.444a5.767 5.767 0 001.264-6.32 5.807 5.807 0 00-2.148-2.602 5.858 5.858 0 00-6.482 0 5.807 5.807 0 00-2.148 2.603 5.767 5.767 0 001.264 6.32l4.125 4.1 4.125-4.1zM7.5 9.114c-.442 0-.866-.175-1.179-.486a1.652 1.652 0 010-2.343 1.672 1.672 0 012.358 0 1.652 1.652 0 010 2.343c-.313.311-.737.486-1.179.486z"/></svg><svg viewBox="0 0 512 512" fill="#fff" id="outdoor-printing"><path d="M356.671 0H155.329c-5.633 0-10.199 4.566-10.199 10.199v192.144c0 35.41 26.244 64.806 60.301 69.764V461.43C205.43 489.315 228.115 512 256 512s50.57-22.685 50.57-50.57V272.107c34.057-4.958 60.301-34.355 60.301-69.764V10.199C366.87 4.566 362.303 0 356.671 0zm-10.199 202.343c0 27.626-22.475 50.102-50.102 50.102-5.632 0-10.199 4.566-10.199 10.199V461.43c0 16.636-13.535 30.171-30.171 30.171s-30.171-13.535-30.171-30.171V262.644c0-5.633-4.566-10.199-10.199-10.199-27.626 0-50.102-22.475-50.102-50.102v-59.299h180.944v59.299zm0-79.698H165.528V20.398h19.717v26.518c0 5.633 4.566 10.199 10.199 10.199s10.199-4.566 10.199-10.199V20.398h19.972v61.344c0 5.633 4.566 10.199 10.199 10.199s10.199-4.566 10.199-10.199V20.398h19.972v61.344c0 5.633 4.567 10.199 10.199 10.199s10.199-4.566 10.199-10.199V20.398h19.972v61.344c0 5.633 4.567 10.199 10.199 10.199s10.199-4.566 10.199-10.199V20.398h19.717v102.247z"/><path d="M195.444 66.295c-5.633 0-10.199 4.566-10.199 10.199v5.247c0 5.633 4.566 10.199 10.199 10.199s10.199-4.566 10.199-10.199v-5.247c0-5.632-4.566-10.199-10.199-10.199zM256 446.725c-5.633 0-10.199 4.566-10.199 10.199v6.12c0 5.633 4.566 10.199 10.199 10.199 5.632 0 10.199-4.566 10.199-10.199v-6.12c0-5.633-4.567-10.199-10.199-10.199z"/></svg><svg viewBox="0 0 18 18" fill="#fff" id="phone"><path d="M6.366 7.682a10.556 10.556 0 003.952 3.952l.884-1.238a1 1 0 011.294-.296 11.422 11.422 0 004.583 1.364 1 1 0 01.921.997v4.462a1 1 0 01-.898.995A15.51 15.51 0 0115.5 18C6.94 18 0 11.06 0 2.5 0 1.962.027 1.428.082.898A1 1 0 011.077 0h4.462a1 1 0 01.997.921A11.422 11.422 0 007.9 5.504a1 1 0 01-.296 1.294l-1.238.884zm-2.522-.657l1.9-1.357A13.41 13.41 0 014.647 2H2.01c-.006.166-.009.333-.009.5C2 9.956 8.044 16 15.5 16c.167 0 .334-.003.5-.01v-2.637a13.413 13.413 0 01-3.668-1.097l-1.357 1.9a12.446 12.446 0 01-1.588-.75l-.058-.033a12.556 12.556 0 01-4.702-4.702l-.033-.058a12.442 12.442 0 01-.75-1.588z"/></svg><svg fill="#fff" viewBox="0 0 315.12 315.12" id="photo-books"><g fill="##fff"><path d="M140.102 77.411H38.658c-8.271 0-15 6.729-15 15v100.684c0 8.271 6.729 15 15 15h101.443c8.271 0 15-6.729 15-15V92.411c.001-8.271-6.728-15-14.999-15zm-101.444 10h101.443c2.757 0 5 2.243 5 5v21.411l-50.41 45.736c-.936.849-2.113 1.262-3.292 1.165-1.188-.097-2.275-.694-3.061-1.683L72.41 138.99c-5.06-6.367-14.561-7.705-21.181-2.982l-17.572 12.537V92.411a5.007 5.007 0 015.001-5zm101.444 110.683H38.658c-2.757 0-5-2.243-5-5V160.83l23.381-16.682c2.314-1.653 5.77-1.167 7.542 1.063l15.928 20.05c2.525 3.178 6.104 5.106 10.079 5.43.394.032.785.048 1.176.048 3.551 0 6.939-1.317 9.646-3.774l43.691-39.64v65.771a5.004 5.004 0 01-4.999 4.998z"/><path d="M306.861 105.464l-122.1-75.883c-8.194-5.092-19.006-2.571-24.102 5.626l-10.157 16.344H17.5c-9.649 0-17.5 7.851-17.5 17.5v177.016c0 9.649 7.851 17.5 17.5 17.5h142.096l35.354 21.97a17.389 17.389 0 009.208 2.633c5.854-.001 11.581-2.931 14.893-8.258l93.438-150.346c5.092-8.196 2.569-19.007-5.628-24.102zM183.802 71.206l86.161 53.547a5.004 5.004 0 011.607 6.886l-53.146 85.514a5.005 5.005 0 01-6.886 1.608l-32.779-20.372V69.9c.684-.212 2.727-.133 5.043 1.306zM15 246.067V69.051c0-1.355 1.145-2.5 2.5-2.5h143.76c1.355 0 2.5 1.145 2.5 2.5v177.016c0 1.355-1.145 2.5-2.5 2.5H17.5c-1.355 0-2.5-1.145-2.5-2.5zm284.747-124.42L206.31 271.993c-.715 1.15-2.292 1.521-3.442.804L175.71 255.92a17.392 17.392 0 003.05-9.854v-35.904l27.5 17.091a14.857 14.857 0 007.87 2.256c1.148 0 2.307-.132 3.455-.4 3.909-.913 7.224-3.284 9.333-6.678l53.146-85.514c2.109-3.393 2.768-7.415 1.855-11.325-.912-3.909-3.283-7.223-6.677-9.333l-86.161-53.547c-4.286-2.664-8.956-3.445-12.735-2.488a17.577 17.577 0 00-8.896-7.523l5.951-9.577c.715-1.152 2.292-1.519 3.443-.804l122.1 75.882c1.15.718 1.519 2.294.803 3.445z"/></g></svg><svg viewBox="0 0 64 64" fill="#fff" id="photos"><path d="M62 6H10a2 2 0 00-2 2v6H2a2 2 0 00-2 2v40a2 2 0 002 2h52a2 2 0 002-2v-6h6a2 2 0 002-2V8a2 2 0 00-2-2zM52 18v31.651l-10.698-9.17a2 2 0 00-2.331-.196l-8.566 5.14-12.9-14.742a2.003 2.003 0 00-1.438-.682 2.012 2.012 0 00-1.48.585L4 41.172V18h48zM4 46.828l11.902-11.902 12.593 14.392a1.997 1.997 0 002.534.397l8.764-5.258L50.927 54H4v-7.172zM60 46h-4V16a2 2 0 00-2-2H12v-4h48v36z"/><path d="M41 36c3.859 0 7-3.141 7-7s-3.141-7-7-7-7 3.141-7 7 3.141 7 7 7zm0-10c1.654 0 3 1.346 3 3s-1.346 3-3 3-3-1.346-3-3 1.346-3 3-3z"/></svg><svg viewBox="0 0 490 490" fill="#fff" id="promo-materials"><path d="M487.491 81.312L420.967 3.645A10.408 10.408 0 00413.051 0H168.763a10.422 10.422 0 00-10.217 8.358L90.118 346.862H48.88C21.472 346.862 0 378.301 0 418.436 0 458.56 21.472 490 48.88 490h273.615c40.821 0 77.046-31.491 88.098-76.583l79.108-322.845a10.413 10.413 0 00-2.21-9.26zm-30.575-3.645h-49.608l11.036-45.036 38.572 45.036zm-174.31 391.482H48.88c-13.256 0-28.029-20.831-28.029-50.713 0-29.892 14.773-50.722 28.029-50.722h233.727c-8.344 12.868-13.436 30.714-13.436 50.722-.001 20.003 5.091 37.845 13.435 50.713zm107.736-60.701c-8.755 35.736-36.657 60.701-67.847 60.701h-6.705c-10.715 0-22.506-16.097-25.198-40.287h61.388c5.758 0 10.426-4.663 10.426-10.426 0-40.134-20.475-71.574-46.615-71.574H111.387L177.29 20.851h222.474l-15.867 64.762c-1.917 6.566 3.543 12.905 10.125 12.905h72.266l-75.946 309.93zm-99.751-.438c2.693-24.201 14.483-40.297 25.198-40.297 10.711 0 22.501 16.096 25.193 40.297h-50.391z"/></svg><svg viewBox="0 0 79 83" fill="none" id="quality"><path d="M39.354 78.443c20.825 0 37.707-16.894 37.707-37.735 0-20.84-16.882-37.735-37.707-37.735S1.647 19.867 1.647 40.708c0 20.84 16.882 37.735 37.707 37.735z" fill="#FBE1CA"/><path d="M39.354 79.093c21.543 0 39.008-17.478 39.008-39.037 0-21.56-17.465-39.037-39.008-39.037C17.811 1.019.346 18.496.346 40.056s17.465 39.037 39.008 39.037z" fill="#C1C2FF"/><path d="M70.313 16.837c-.023 1.765-.09 7.403-.286 24.44-.31 25.913-26.431 38.737-31.55 40.974a.84.84 0 01-.71 0l-.5-.246C31.145 78.97 6.97 65.829 7.255 40.642c.203-17.037.269-22.675.286-24.44a.767.767 0 01.634-.729C20.132 12.984 31.308 7.366 38.582.461a.857.857 0 011.17 0c6.61 6.554 16.517 12.063 27.428 15.01.831.225 1.672.434 2.515.628a.766.766 0 01.618.738z" fill="#fff"/><path d="M38.134 82.537c-.162 0-.321-.038-.466-.109l-.5-.246c-3.773-1.87-11.062-5.973-17.47-12.417-8.53-8.582-12.789-18.379-12.66-29.14l.166-14.857.117-9.589a.973.973 0 01.806-.938C19.792 12.813 31.119 7.231 38.425.284a1.066 1.066 0 011.47.02c6.662 6.613 16.623 12.062 27.328 14.946.791.214 1.635.426 2.507.626a.983.983 0 01.785.956c-.02 1.476-.068 5.675-.202 17.014l-.086 7.423c-.132 11.021-4.86 20.953-14.04 29.52a66.31 66.31 0 01-17.639 11.648c-.13.06-.27.095-.414.1zM39.163.44c-.16 0-.314.06-.432.169-7.363 6.99-18.768 12.623-30.51 15.066a.546.546 0 00-.463.52l-.117 9.592-.174 14.854c-.126 10.644 4.09 20.344 12.536 28.837C26.366 75.877 33.61 79.95 37.36 81.81l.497.246a.628.628 0 00.532 0 65.941 65.941 0 0017.519-11.568c9.095-8.484 13.771-18.307 13.903-29.21l.085-7.438c.135-11.339.183-15.535.203-17.014a.555.555 0 00-.451-.532 72.203 72.203 0 01-2.524-.632C56.35 12.758 46.317 7.269 39.603.604a.62.62 0 00-.44-.171V.44z" fill="#24071D"/><path d="M64.053 21.583L63.82 41.28c-.111 9.28-4.193 17.618-12.136 24.78a56.305 56.305 0 01-13.06 8.71.857.857 0 01-.74 0 55.856 55.856 0 01-12.848-8.979C17.265 58.466 13.38 50.06 13.492 40.766l.231-19.697a.77.77 0 01.598-.735c9.344-2.288 17.861-6.339 24.173-11.505h1.077c6.189 5.298 14.606 9.534 23.893 12.014a.828.828 0 01.437.286c.101.13.155.29.152.455z" fill="#6667AB"/><path d="M38.254 75.065c-.161.004-.32-.029-.466-.097a62.63 62.63 0 01-1.715-.901 56.208 56.208 0 01-11.196-8.112c-7.818-7.369-11.72-15.842-11.61-25.173l.23-19.697a.985.985 0 01.77-.93c9.26-2.282 17.804-6.353 24.092-11.49l.06-.049h1.235l.057.052c6.151 5.263 14.606 9.511 23.81 11.957.217.059.41.185.552.36.129.168.198.375.197.587l-.231 19.697c-.115 9.345-4.222 17.735-12.208 24.937a56.695 56.695 0 01-13.114 8.762l-.049.023a1.091 1.091 0 01-.414.074zm.314-66.017c-6.317 5.15-14.906 9.234-24.199 11.497a.57.57 0 00-.44.52l-.231 19.695c-.112 9.219 3.75 17.586 11.476 24.869a55.82 55.82 0 0012.802 8.944.632.632 0 00.552 0l.049-.02a56.437 56.437 0 0012.962-8.656c7.898-7.12 11.956-15.403 12.068-24.623l.232-19.7a.52.52 0 00-.11-.317.609.609 0 00-.322-.209c-9.232-2.454-17.722-6.713-23.916-11.997l-.923-.003z" fill="#24071D"/><path opacity=".26" d="M70.313 16.837c-.023 1.765-.09 7.403-.286 24.44-.309 25.913-26.431 38.737-31.55 40.974a.84.84 0 01-.71 0l-.5-.246a74.845 74.845 0 0013.343-9.511c10.665-9.62 16.147-20.819 16.293-33.282l.285-23.742c.832.226 1.672.435 2.516.63a.766.766 0 01.609.737z" fill="#680000"/><path opacity=".26" d="M64.053 21.583L63.82 41.28c-.111 9.28-4.193 17.618-12.136 24.78a56.305 56.305 0 01-13.06 8.71.857.857 0 01-.74 0c-.5-.251-1.072-.552-1.7-.898a56.505 56.505 0 0012.71-8.724c7.952-7.343 12.045-15.856 12.15-25.347l.227-19.451c.857.286 1.743.546 2.63.792.097.126.15.281.15.44z" fill="#680000"/><path d="M39.234 26.586h-.766c-8.27 0-14.975 6.71-14.975 14.986v.003c0 8.276 6.705 14.986 14.975 14.986h.766c8.27 0 14.975-6.71 14.975-14.986v-.003c0-8.277-6.705-14.986-14.975-14.986z" fill="#4D4E95"/><path d="M39.234 56.775h-.763a15.182 15.182 0 01-10.877-4.378 15.202 15.202 0 01-4.524-10.824 15.212 15.212 0 014.524-10.824 15.19 15.19 0 0110.877-4.378h.763a15.186 15.186 0 0110.607 4.526 15.209 15.209 0 010 21.353 15.187 15.187 0 01-10.607 4.525zM38.471 26.8a14.756 14.756 0 00-13.825 9.072 14.782 14.782 0 008.112 19.41 14.752 14.752 0 005.713 1.064h.763a14.757 14.757 0 0010.306-4.399 14.78 14.78 0 000-20.748A14.757 14.757 0 0039.234 26.8h-.763z" fill="#24071D"/><path d="M27.41 39.515h-.055a.217.217 0 01-.152-.263c2.17-7.97 9.504-9.605 9.579-9.623a.217.217 0 01.254.166.215.215 0 01-.166.252c-.071.017-7.146 1.605-9.255 9.317a.212.212 0 01-.206.151z" fill="#FBE1CA"/><path d="M35.35 49.816c-.31 0-.608-.123-.83-.34l-6.254-6.185a1.18 1.18 0 111.658-1.68l5.374 5.324L46.614 34.35a1.18 1.18 0 111.755 1.582L36.227 49.424a1.186 1.186 0 01-.858.392h-.02zM44.579 68.72a.215.215 0 01-.123-.388c10.862-7.583 14.578-18.83 14.626-18.942a.215.215 0 11.409.131c-.037.115-3.802 11.5-14.79 19.165a.215.215 0 01-.122.035z" fill="#fff"/></svg><svg viewBox="0 0 512 512" fill="#fff" id="question"><path d="M256 0C114.841 0 0 114.841 0 256s114.841 256 256 256 256-114.841 256-256S397.159 0 256 0zm0 492.308c-130.298 0-236.308-106.01-236.308-236.308S125.702 19.692 256 19.692 492.308 125.702 492.308 256 386.298 492.308 256 492.308z"/><path d="M246.154 118.154c-21.582 0-41.721 8.564-56.707 24.106-3.774 3.913-3.664 10.144.255 13.918 3.909 3.774 10.144 3.664 13.918-.254 11.24-11.655 26.346-18.078 42.534-18.078 32.577 0 59.077 26.501 59.077 59.077 0 20.275-9.447 26.712-26.601 38.394-9.039 6.159-19.288 13.135-29.759 23.543-28.111 27.923-19.394 59.044-10.861 71.597a9.773 9.773 0 008.106 4.289 9.854 9.854 0 005.481-1.669c4.495-3 5.707-9.1 2.745-13.624-1.553-2.371-14.529-23.837 8.404-46.621 9.187-9.125 18.635-15.561 26.971-21.24 18.106-12.331 35.207-23.981 35.207-54.668-.001-43.434-35.338-78.77-78.77-78.77zM245.135 364.308c-5.438 0-9.846 4.41-9.846 9.846V384c0 5.438 4.409 9.846 9.846 9.846 5.438 0 9.846-4.409 9.846-9.846v-9.846c0-5.436-4.409-9.846-9.846-9.846z"/></svg><svg viewBox="0 0 60 60" fill="#fff" id="user"><path d="M48.014 42.889l-9.553-4.776A2.63 2.63 0 0137 35.748v-3.381c.229-.28.47-.599.719-.951a22.886 22.886 0 002.954-5.799A3.968 3.968 0 0043 22v-4c0-.963-.36-1.896-1-2.625v-5.319c.056-.55.276-3.824-2.092-6.525C37.854 1.188 34.521 0 30 0s-7.854 1.188-9.908 3.53C17.724 6.231 17.944 9.506 18 10.056v5.319c-.64.729-1 1.662-1 2.625v4c0 1.217.553 2.352 1.497 3.109.916 3.627 2.833 6.36 3.503 7.237v3.309c0 .968-.528 1.856-1.377 2.32l-8.921 4.866A9.018 9.018 0 007 50.762V54c0 4.746 15.045 6 23 6s23-1.254 23-6v-3.043a8.973 8.973 0 00-4.986-8.068z"/></svg><svg viewBox="0 0 223 223" fill="#fff" id="wallet"><path d="M223 94.5c0-6.075-4.925-11-11-11h-63c-6.075 0-11 4.925-11 11v33c0 6.075 4.925 11 11 11h63c6.075 0 11-4.925 11-11v-33zm-53.485 29.467c-7.082 0-12.823-5.741-12.823-12.823 0-7.082 5.741-12.823 12.823-12.823 7.082 0 12.823 5.741 12.823 12.823 0 7.081-5.741 12.823-12.823 12.823z"/><path d="M123.509 68.5H205v-33c0-8.271-6.395-15-14.667-15h-175C7.062 20.5 0 27.229 0 35.5v152c0 8.271 7.062 15 15.333 15h175c8.271 0 14.667-6.729 14.667-15v-34h-81.342l-.149-85z"/></svg><svg viewBox="0 0 480 480" fill="#fff" id="wallprints"><path d="M470 120H338.938l-64.323-59.965C278.122 54.008 280 47.147 280 40c0-22.056-17.944-40-40-40s-40 17.944-40 40c0 7.147 1.878 14.008 5.385 20.035L141.062 120H10c-5.523 0-10 4.478-10 10v340c0 5.522 4.477 10 10 10h460c5.523 0 10-4.478 10-10V130c0-5.522-4.477-10-10-10zM240 20c11.028 0 20 8.972 20 20 0 5.327-2.084 10.345-5.87 14.13C250.345 57.915 245.327 60 240 60s-10.345-2.085-14.13-5.87C222.084 50.345 220 45.327 220 40c0-11.028 8.972-20 20-20zm-20.585 54.298C225.572 78.014 232.636 80 240 80s14.428-1.986 20.585-5.702L309.608 120H170.392l49.023-45.702zM445.858 140l-20.001 20H54.143l-20-20h411.715zM321.979 338.969l48.714-27.847L420 331.666v52.685l-98.021-45.382zM420 406.39V420H60v-38.229l164.706-65.883 71.289 33.089L420 406.39zm-46.154-115.62a10 10 0 00-8.809.549l-65.319 37.338-70.508-32.727a10.005 10.005 0 00-7.924-.215L60 360.229V180h360v130l-46.154-19.23zM20 154.143l20 20v251.715l-20 20V154.143zM34.143 460l20-20h371.715l20 20H34.143zM460 445.858l-20-20.001V174.143l20-20v291.715z"/><path d="M140 200c-24.813 0-45 20.187-45 45s20.187 45 45 45 45-20.187 45-45-20.187-45-45-45zm0 70c-13.785 0-25-11.215-25-25s11.215-25 25-25 25 11.215 25 25-11.215 25-25 25zM280 200c-7.678 0-14.688 2.902-20 7.664-5.312-4.762-12.322-7.664-20-7.664-16.542 0-30 13.458-30 30h20c0-5.514 4.486-10 10-10s10 4.486 10 10h20c0-5.514 4.486-10 10-10s10 4.486 10 10h20c0-16.542-13.458-30-30-30zM370 240c-7.678 0-14.688 2.902-20 7.664-5.312-4.762-12.322-7.664-20-7.664-16.542 0-30 13.458-30 30h20c0-5.514 4.486-10 10-10s10 4.486 10 10h20c0-5.514 4.486-10 10-10s10 4.486 10 10h20c0-16.542-13.458-30-30-30z"/></svg></svg>