<svg width="108" height="39" viewBox="0 0 108 39" fill="none" xmlns="http://www.w3.org/2000/svg">
<path d="M5.525 28H1.775V14.55H5.525V28ZM2.075 12.85C1.65833 12.4167 1.45 11.8917 1.45 11.275C1.45 10.6583 1.65833 10.1417 2.075 9.725C2.50833 9.29167 3.03333 9.075 3.65 9.075C4.26667 9.075 4.78333 9.29167 5.2 9.725C5.63333 10.1417 5.85 10.6583 5.85 11.275C5.85 11.8917 5.63333 12.4167 5.2 12.85C4.78333 13.2667 4.26667 13.475 3.65 13.475C3.03333 13.475 2.50833 13.2667 2.075 12.85ZM15.0748 13.55C14.4248 13.55 13.9081 13.7083 13.5248 14.025C13.1581 14.325 12.9748 14.7333 12.9748 15.25C12.9748 15.75 13.1998 16.15 13.6498 16.45C14.1165 16.75 15.1748 17.1083 16.8248 17.525C18.4915 17.925 19.7831 18.5333 20.6998 19.35C21.6165 20.1667 22.0748 21.3583 22.0748 22.925C22.0748 24.4917 21.4831 25.7667 20.2998 26.75C19.1331 27.7167 17.5915 28.2 15.6748 28.2C12.9081 28.2 10.4165 27.175 8.1998 25.125L10.5248 22.275C12.4081 23.925 14.1498 24.75 15.7498 24.75C16.4665 24.75 17.0248 24.6 17.4248 24.3C17.8415 23.9833 18.0498 23.5667 18.0498 23.05C18.0498 22.5167 17.8331 22.1 17.3998 21.8C16.9665 21.4833 16.1081 21.1667 14.8248 20.85C12.7915 20.3667 11.2998 19.7417 10.3498 18.975C9.41647 18.1917 8.9498 16.975 8.9498 15.325C8.9498 13.6583 9.54147 12.375 10.7248 11.475C11.9248 10.575 13.4165 10.125 15.1998 10.125C16.3665 10.125 17.5331 10.325 18.6998 10.725C19.8665 11.125 20.8831 11.6917 21.7498 12.425L19.7748 15.275C18.2581 14.125 16.6915 13.55 15.0748 13.55ZM29.1504 17.25V23.275C29.1504 23.7917 29.2837 24.2 29.5504 24.5C29.8171 24.7833 30.1337 24.925 30.5004 24.925C31.2004 24.925 31.7921 24.6083 32.2754 23.975L33.6754 26.6C32.5087 27.6667 31.2754 28.2 29.9754 28.2C28.6921 28.2 27.6004 27.775 26.7004 26.925C25.8171 26.075 25.3754 24.9167 25.3754 23.45V17.25H23.8004V14.55H25.3754V10.525H29.1504V14.55H32.4004V17.25H29.1504ZM39.4361 28H35.6861V14.55H39.4361V28ZM35.9861 12.85C35.5695 12.4167 35.3611 11.8917 35.3611 11.275C35.3611 10.6583 35.5695 10.1417 35.9861 9.725C36.4195 9.29167 36.9445 9.075 37.5611 9.075C38.1778 9.075 38.6945 9.29167 39.1111 9.725C39.5445 10.1417 39.7611 10.6583 39.7611 11.275C39.7611 11.8917 39.5445 12.4167 39.1111 12.85C38.6945 13.2667 38.1778 13.475 37.5611 13.475C36.9445 13.475 36.4195 13.2667 35.9861 12.85ZM49.4359 24.875C50.6859 24.875 51.8109 24.25 52.8109 23L55.0359 25.5C53.3026 27.3 51.4276 28.2 49.4109 28.2C47.3943 28.2 45.6859 27.5667 44.2859 26.3C42.9026 25.0167 42.2109 23.35 42.2109 21.3C42.2109 19.2333 42.9109 17.5583 44.3109 16.275C45.7276 14.975 47.4026 14.325 49.3359 14.325C50.3026 14.325 51.2776 14.525 52.2609 14.925C53.2609 15.325 54.1359 15.9167 54.8859 16.7L52.9359 19.25C52.5026 18.7333 51.9693 18.3333 51.3359 18.05C50.7193 17.7667 50.1026 17.625 49.4859 17.625C48.5026 17.625 47.6526 17.95 46.9359 18.6C46.2359 19.2333 45.8859 20.125 45.8859 21.275C45.8859 22.4083 46.2359 23.2917 46.9359 23.925C47.6526 24.5583 48.4859 24.875 49.4359 24.875ZM61.2867 28H57.5367V9.45H61.2867V18.975L65.4617 14.525H70.1867L65.0617 19.975L70.3867 28H65.9367L62.5117 22.85L61.2867 24.125V28Z" fill="#6667AB"/>
<path d="M81.6589 16.5899C86.7153 16.6039 86.7109 15.6896 86.7109 21.0822C86.7109 26.6139 86.7109 37.2932 86.7109 39C85.7848 38.4112 84.9233 37.5469 84.1192 36.8059C82.7749 35.5653 81.3392 34.0029 81.0596 32.1246C80.752 30.0634 81.6955 28.1475 82.5092 26.3208C83.1704 24.8371 83.8378 23.3516 84.3849 21.825C85.2935 19.2932 85.2395 18.7289 82.7514 17.2521C82.565 17.141 82.1712 16.9468 81.6589 16.5899Z" fill="#FBA919"/>
<path d="M98.0502 0.411286C94.6456 -0.753138 90.0841 0.584506 89.0352 4.04891C88.7059 5.13197 88.5517 6.2964 88.5517 7.42058C88.5108 16.9232 88.6502 38.7314 88.6502 38.7314C88.6502 38.7314 89.0396 34.8567 89.1903 33.9241C89.5745 31.5428 90.0894 29.1798 90.8211 26.8807C91.5686 24.53 92.6184 22.3368 93.6795 20.1181C94.8216 17.7307 96.0787 15.6389 97.7436 13.5743C99.4667 11.4388 102.201 8.95856 102.156 6.06281C102.116 3.38927 100.578 1.28439 98.0502 0.411286ZM95.238 8.83346C93.6978 8.83346 92.4381 7.59292 92.4381 6.06369C92.4381 4.53445 93.6978 3.29391 95.238 3.29391C96.8105 3.29391 98.0258 4.53358 98.0258 6.06369C98.0258 7.5938 96.7774 8.83346 95.238 8.83346Z" fill="#EA3196"/>
<path d="M107.993 26.0225C107.91 24.635 107.193 23.6551 105.847 23.2597C104.167 22.8039 102.854 23.3017 101.85 24.6148C100.165 26.8212 95.2818 34.8532 93.1578 38.126C95.1232 36.0806 98.817 31.0161 105.259 29.4414C106.982 29.0206 108.099 27.7739 107.993 26.0225ZM104.939 27.4117C104.248 27.3706 103.721 26.7836 103.762 26.1003C103.802 25.4171 104.395 24.8965 105.085 24.9377C105.775 24.9788 106.303 25.5658 106.262 26.2491C106.222 26.9323 105.629 27.4528 104.939 27.4117Z" fill="#8450A2"/>
<path d="M107.635 31.4676C106.994 30.1483 105.342 29.7415 104.14 30.7117C101.549 32.8043 96.7164 37.3098 95.8113 38.126C96.6415 37.63 97.5989 36.882 98.3203 36.5478C99.127 36.1743 99.7028 35.9424 100.541 35.6441C102.204 35.0527 103.973 34.6004 105.75 34.5733C107.324 34.5497 108.328 32.8936 107.635 31.4676ZM105.568 33.2934C105.046 33.2269 104.676 32.7527 104.742 32.2348C104.807 31.7169 105.284 31.3503 105.805 31.4168C106.326 31.4833 106.696 31.9575 106.63 32.4754C106.565 32.9942 106.089 33.3599 105.568 33.2934Z" fill="#44A4DA"/>
<path d="M106.385 16.7412C105.88 14.7588 104.394 13.4981 102.342 13.352C100.403 13.1963 98.2017 14.2531 97.2486 16.54C96.3653 18.6475 95.8121 20.6369 95.0663 23.0935C93.7273 27.5071 91.8281 33.9232 90.9413 38.126C92.0015 35.8776 94.1838 31.4527 95.515 29.4414C97.7748 26.0286 100.32 24.0366 103.919 22.0489C106.121 20.8232 106.912 18.7971 106.385 16.7412ZM101.612 19.8732C100.53 19.8732 99.6514 18.9922 99.6514 17.9047C99.6514 16.8173 100.53 15.9363 101.612 15.9363C102.694 15.9363 103.572 16.8173 103.572 17.9047C103.572 18.9922 102.694 19.8732 101.612 19.8732Z" fill="#A0CC39"/>
</svg>
