<?xml version="1.0" encoding="utf-8"?><svg viewBox="0 0 1792 1792" xmlns="http://www.w3.org/2000/svg" xmlns:xlink="http://www.w3.org/1999/xlink"><style>:root>svg{display:none}:root>svg:target{display:block}</style><svg viewBox="0 0 12 6" id="angle-down"><path d="M6 6a.531.531 0 01-.364-.14L.138.799A.448.448 0 01.151.14.548.548 0 01.867.127L6 4.855 11.133.127a.548.548 0 01.716.012c.196.18.202.472.013.66L6.364 5.86A.531.531 0 016 6z"/></svg><svg viewBox="0 0 1792 1792" id="angle-right"><path d="M1171 960q0 13-10 23l-466 466q-10 10-23 10t-23-10l-50-50q-10-10-10-23t10-23l393-393-393-393q-10-10-10-23t10-23l50-50q10-10 23-10t23 10l466 466q10 10 10 23z"/></svg><svg viewBox="0 0 18 18" id="basket"><path d="M1.737 12V1.714H0V0h2.606c.23 0 .452.09.614.251.163.16.255.379.255.606v10.286H14.28l1.738-6.857H5.212V2.57h11.92a.878.878 0 01.684.33.852.852 0 01.158.736l-2.172 8.571a.856.856 0 01-.308.468.876.876 0 01-.534.181H2.606a.875.875 0 01-.614-.25.852.852 0 01-.255-.607zm1.738 6c-.46 0-.903-.18-1.229-.502a1.703 1.703 0 01-.509-1.212c0-.455.184-.891.51-1.213a1.75 1.75 0 011.228-.502c.46 0 .903.181 1.228.502.326.322.51.758.51 1.213 0 .454-.184.89-.51 1.212A1.75 1.75 0 013.475 18zM13.9 18c-.461 0-.903-.18-1.229-.502a1.703 1.703 0 01-.509-1.212c0-.455.183-.891.51-1.213a1.75 1.75 0 011.228-.502c.46 0 .902.181 1.228.502.326.322.51.758.51 1.213 0 .454-.184.89-.51 1.212A1.75 1.75 0 0113.9 18z"/></svg><svg viewBox="0 0 15 15" id="email"><path d="M.182 4.3L7.118.109a.745.745 0 01.771 0l6.929 4.194a.376.376 0 01.182.324v9.618a.76.76 0 01-.22.534.747.747 0 01-.53.222H.75a.747.747 0 01-.53-.222.76.76 0 01-.22-.534V4.625a.38.38 0 01.182-.324zm1.318.968v8.22h12v-8.22l-5.997-3.63L1.5 5.267zm6.045 4.21l3.972-3.376.966 1.157-4.928 4.188-5.032-4.183.954-1.168 4.068 3.381z"/></svg><svg viewBox="0 0 16 18" id="lists"><path d="M3.556 3.6V.9c0-.239.093-.468.26-.636A.883.883 0 014.444 0h10.667c.236 0 .462.095.629.264.166.168.26.397.26.636v12.6a.906.906 0 01-.26.636.883.883 0 01-.629.264h-2.667v2.7c0 .497-.4.9-.895.9H.895a.88.88 0 01-.632-.262A.902.902 0 010 17.1L.003 4.5c0-.497.4-.9.894-.9h2.659zM1.78 5.4l-.002 10.8h8.889V5.4H1.78zm3.553-1.8h7.111v9h1.778V1.8H5.333v1.8zM3.556 8.1h5.333v1.8H3.556V8.1zm0 3.6h5.333v1.8H3.556v-1.8z"/></svg><svg viewBox="0 0 15 18" id="nav-marker"><path d="M7.5 18l-5.303-5.272A7.442 7.442 0 01.144 8.91a7.415 7.415 0 01.427-4.307 7.466 7.466 0 012.762-3.346 7.532 7.532 0 018.334 0 7.466 7.466 0 012.762 3.346 7.415 7.415 0 01.427 4.307 7.442 7.442 0 01-2.053 3.818L7.5 18zm4.125-6.444a5.767 5.767 0 001.264-6.32 5.807 5.807 0 00-2.148-2.602 5.858 5.858 0 00-6.482 0 5.807 5.807 0 00-2.148 2.603 5.767 5.767 0 001.264 6.32l4.125 4.1 4.125-4.1zM7.5 9.114c-.442 0-.866-.175-1.179-.486a1.652 1.652 0 010-2.343 1.672 1.672 0 012.358 0 1.652 1.652 0 010 2.343c-.313.311-.737.486-1.179.486z"/></svg><svg viewBox="0 0 18 18" id="pencil"><path d="M12.749 6.668L11.332 5.25l-9.329 9.33v1.416H3.42l9.329-9.33zm1.416-1.417l1.416-1.416-1.416-1.416-1.416 1.416 1.416 1.416zM4.249 18H0v-4.25L13.457.293a1.002 1.002 0 011.416 0l2.834 2.834a1.002 1.002 0 010 1.416L4.25 18h-.001z"/></svg><svg viewBox="0 0 18 18" id="phone"><path d="M6.366 7.682a10.556 10.556 0 003.952 3.952l.884-1.238a1 1 0 011.294-.296 11.422 11.422 0 004.583 1.364 1 1 0 01.921.997v4.462a1 1 0 01-.898.995A15.51 15.51 0 0115.5 18C6.94 18 0 11.06 0 2.5 0 1.962.027 1.428.082.898A1 1 0 011.077 0h4.462a1 1 0 01.997.921A11.422 11.422 0 007.9 5.504a1 1 0 01-.296 1.294l-1.238.884zm-2.522-.657l1.9-1.357A13.41 13.41 0 014.647 2H2.01c-.006.166-.009.333-.009.5C2 9.956 8.044 16 15.5 16c.167 0 .334-.003.5-.01v-2.637a13.413 13.413 0 01-3.668-1.097l-1.357 1.9a12.446 12.446 0 01-1.588-.75l-.058-.033a12.556 12.556 0 01-4.702-4.702l-.033-.058a12.442 12.442 0 01-.75-1.588z"/></svg><svg viewBox="0 0 15 20" id="profile"><path d="M15 20h-1.875v-1.905a2.88 2.88 0 00-.824-2.02 2.79 2.79 0 00-1.989-.837H4.689a2.79 2.79 0 00-1.99.837 2.88 2.88 0 00-.823 2.02V20H0v-1.905a4.8 4.8 0 011.373-3.367 4.65 4.65 0 013.315-1.395h5.625a4.65 4.65 0 013.314 1.395A4.8 4.8 0 0115 18.095V20zm-7.5-8.571c-.739 0-1.47-.148-2.153-.435a5.62 5.62 0 01-1.824-1.24 5.721 5.721 0 01-1.22-1.853 5.793 5.793 0 010-4.373 5.721 5.721 0 011.22-1.854A5.62 5.62 0 015.347.435 5.549 5.549 0 017.5 0a5.58 5.58 0 013.977 1.674 5.76 5.76 0 011.648 4.04 5.76 5.76 0 01-1.648 4.04A5.581 5.581 0 017.5 11.43zm0-1.905a3.72 3.72 0 002.652-1.116 3.84 3.84 0 001.098-2.694 3.84 3.84 0 00-1.098-2.693A3.72 3.72 0 007.5 1.905 3.72 3.72 0 004.848 3.02 3.84 3.84 0 003.75 5.714c0 1.01.395 1.98 1.098 2.694A3.72 3.72 0 007.5 9.524z"/></svg><svg viewBox="0 0 18 18" id="remove"><path d="M13.5 3.6H18v1.8h-1.8v11.7a.9.9 0 01-.9.9H2.7a.9.9 0 01-.9-.9V5.4H0V3.6h4.5V.9a.9.9 0 01.9-.9h7.2a.9.9 0 01.9.9v2.7zm.9 1.8H3.6v10.8h10.8V5.4zM6.3 1.8v1.8h5.4V1.8H6.3z"/></svg><svg viewBox="0 0 18 14" id="repost"><path d="M9 9.625H7.2a8.275 8.275 0 00-4.189 1.133A7.971 7.971 0 00.03 13.834 8.622 8.622 0 010 13.125c0-4.833 4.03-8.75 9-8.75V0l9 7-9 7V9.625z"/></svg><svg viewBox="0 0 15 15" id="search"><path fill-rule="evenodd" clip-rule="evenodd" d="M.847 4.306C1.985 1.705 4.652.008 7.612 0c3.19-.016 6.027 1.93 7.021 4.815.995 2.885-.08 6.052-2.66 7.838-2.58 1.786-6.077 1.783-8.654-.007L1.02 14.833a.62.62 0 01-.846 0 .55.55 0 010-.805l2.226-2.119C.321 9.904-.29 6.907.847 4.306zm1.067 4.937c.956 2.191 3.205 3.619 5.698 3.616v-.03c3.383-.005 6.13-2.606 6.152-5.826.003-2.373-1.497-4.514-3.8-5.423C7.663.67 5.012 1.17 3.249 2.85 1.485 4.526.958 7.05 1.914 9.242z"/></svg></svg>